<?xml version="1.0" encoding="UTF-8" standalone="no"?>
<!DOCTYPE svg PUBLIC "-//W3C//DTD SVG 1.1//EN" "http://www.w3.org/Graphics/SVG/1.1/DTD/svg11.dtd">
<svg xmlns="http://www.w3.org/2000/svg" version="1.1" viewBox="0.00 0.00 1001.00 1000.00">
<g stroke-width="2.00" fill="none" stroke-linecap="butt">
<path stroke="#8086c0" vector-effect="non-scaling-stroke" d="
  M 527.04 0.95
  Q 500.56 -0.24 474.03 0.92"
/>
<path stroke="#8086c0" vector-effect="non-scaling-stroke" d="
  M 530.71 1.11
  L 542.05 1.78"
/>
<path stroke="#8086c0" vector-effect="non-scaling-stroke" d="
  M 544.43 2.12
  L 553.09 2.62"
/>
<path stroke="#8086c0" vector-effect="non-scaling-stroke" d="
  M 554.70 3.01
  L 569.04 4.66"
/>
<path stroke="#8086c0" vector-effect="non-scaling-stroke" d="
  M 570.71 4.88
  L 613.29 12.74"
/>
<path stroke="#8086c0" vector-effect="non-scaling-stroke" d="
  M 629.44 16.72
  L 636.52 18.73"
/>
<path stroke="#8086c0" vector-effect="non-scaling-stroke" d="
  M 636.52 18.73
  L 643.48 20.73"
/>
<path stroke="#8086c0" vector-effect="non-scaling-stroke" d="
  M 643.48 20.73
  L 656.36 24.79"
/>
<path stroke="#8086c0" vector-effect="non-scaling-stroke" d="
  M 662.27 26.73
  L 673.59 30.74"
/>
<path stroke="#8086c0" vector-effect="non-scaling-stroke" d="
  M 686.24 35.49
  Q 692.50 38.45 698.88 41.19
  C 779.56 75.83 849.60 131.96 901.54 201.72
  Q 980.58 307.86 996.96 441.45"
/>
<path stroke="#8086c0" vector-effect="non-scaling-stroke" d="
  M 997.43 443.13
  L 997.94 451.45"
/>
<path stroke="#8086c0" vector-effect="non-scaling-stroke" d="
  M 998.14 452.55
  L 998.93 461.26"
/>
<path stroke="#8086c0" vector-effect="non-scaling-stroke" d="
  M 999.43 465.34
  L 999.82 478.75"
/>
<path stroke="#8086c0" vector-effect="non-scaling-stroke" d="
  M 1000.33 485.76
  L 1000.19 514.28"
/>
<path stroke="#8086c0" vector-effect="non-scaling-stroke" d="
  M 999.90 519.54
  L 999.38 534.39"
/>
<path stroke="#8086c0" vector-effect="non-scaling-stroke" d="
  M 998.90 539.02
  L 998.37 547.38"
/>
<path stroke="#8086c0" vector-effect="non-scaling-stroke" d="
  M 997.96 549.81
  Q 981.11 705.03 881.48 823.40
  C 875.05 831.03 867.56 839.04 860.46 846.73"
/>
<path stroke="#8086c0" vector-effect="non-scaling-stroke" d="
  M 824.35 881.14
  Q 817.95 885.95 811.69 890.95
  C 741.05 947.39 657.75 982.65 568.00 995.35
  Q 552.00 997.61 529.79 998.92"
/>
<path stroke="#8086c0" vector-effect="non-scaling-stroke" d="
  M 527.22 999.12
  Q 500.56 1000.14 473.96 999.05"
/>
<path stroke="#8086c0" vector-effect="non-scaling-stroke" d="
  M 471.95 998.97
  C 353.72 991.87 242.95 944.41 157.00 862.98
  Q 156.85 862.84 156.73 862.84
  Q 156.54 862.83 156.43 863.03"
/>
<path stroke="#8086c0" vector-effect="non-scaling-stroke" d="
  M 137.98 844.58
  Q 138.18 844.49 138.22 844.38
  Q 138.26 844.29 138.13 844.15
  C 67.18 769.30 20.96 674.93 5.90 572.85
  Q 5.90 572.81 5.59 569.62
  Q 5.39 567.55 4.69 565.74"
/>
<path stroke="#8086c0" vector-effect="non-scaling-stroke" d="
  M 4.69 565.74
  L 2.82 547.98"
/>
<path stroke="#8086c0" vector-effect="non-scaling-stroke" d="
  M 2.67 547.55
  L 1.09 523.43"
/>
<path stroke="#8086c0" vector-effect="non-scaling-stroke" d="
  M 0.91 514.48
  L 0.89 485.99"
/>
<path stroke="#8086c0" vector-effect="non-scaling-stroke" d="
  M 1.16 475.84
  L 1.75 464.95"
/>
<path stroke="#8086c0" vector-effect="non-scaling-stroke" d="
  M 1.75 464.95
  Q 1.96 464.26 2.13 461.75
  Q 4.37 429.49 11.83 395.03
  Q 34.48 290.48 97.68 204.38
  Q 141.56 144.59 199.25 101.18
  Q 313.61 15.13 457.70 1.94"
/>
<path stroke="#8086c0" vector-effect="non-scaling-stroke" d="
  M 458.77 1.78
  L 471.46 1.11"
/>
<path stroke="#8086c0" vector-effect="non-scaling-stroke" d="
  M 993.54 499.99
  A 493.04 493.04 0.0 0 0 500.50 6.95
  A 493.04 493.04 0.0 0 0 7.46 499.99
  A 493.04 493.04 0.0 0 0 500.50 993.03
  A 493.04 493.04 0.0 0 0 993.54 499.99"
/>
<path stroke="#8086c0" vector-effect="non-scaling-stroke" d="
  M 980.34 499.99
  A 479.84 479.84 0.0 0 0 500.50 20.15
  A 479.84 479.84 0.0 0 0 20.66 499.99
  A 479.84 479.84 0.0 0 0 500.50 979.83
  A 479.84 479.84 0.0 0 0 980.34 499.99"
/>
<path stroke="#8086c0" vector-effect="non-scaling-stroke" d="
  M 454.43 486.99
  L 453.19 505.19
  A 0.51 0.51 0.0 0 0 453.70 505.74
  L 458.46 505.74
  Q 459.17 505.74 459.23 505.04
  L 460.79 486.98
  Q 460.84 486.31 461.52 486.31
  L 510.97 486.31
  A 0.44 0.44 0.0 0 1 511.41 486.72
  L 513.01 505.27
  Q 513.05 505.74 513.52 505.74
  L 518.41 505.74
  Q 519.07 505.74 519.02 505.09
  L 517.44 486.83
  Q 517.40 486.31 517.92 486.31
  L 570.01 486.31
  Q 570.58 486.31 570.58 485.74
  L 570.59 466.78
  Q 570.59 466.22 570.03 466.22
  L 363.68 466.22
  Q 363.14 466.22 363.14 465.68
  L 363.14 342.58
  A 0.53 0.53 0.0 0 1 363.67 342.05
  L 608.38 342.05
  A 0.70 0.70 0.0 0 1 609.08 342.75
  L 609.06 378.04
  Q 609.06 378.51 609.54 378.51
  L 614.52 378.51
  Q 615.13 378.51 615.13 377.90
  Q 615.02 361.69 615.16 345.51
  Q 615.29 329.74 603.55 326.08
  Q 600.04 324.98 584.83 324.99
  Q 481.94 325.02 379.05 324.99
  Q 370.76 324.99 367.16 326.46
  C 359.01 329.79 356.76 336.71 356.77 345.40
  Q 356.77 406.57 356.74 467.75
  C 356.74 480.05 364.62 486.31 376.13 486.30
  Q 414.97 486.27 453.82 486.33
  Q 454.47 486.33 454.43 486.99"
/>
<path stroke="#8086c0" vector-effect="non-scaling-stroke" d="
  M 388.22 357.14
  A 8.36 8.36 0.0 0 0 379.86 348.78
  A 8.36 8.36 0.0 0 0 371.50 357.14
  A 8.36 8.36 0.0 0 0 379.86 365.50
  A 8.36 8.36 0.0 0 0 388.22 357.14"
/>
<path stroke="#8086c0" vector-effect="non-scaling-stroke" d="
  M 564.57 366.76
  A 0.26 0.26 0.0 0 0 564.31 366.50
  L 407.25 366.50
  A 0.26 0.26 0.0 0 0 406.99 366.76
  L 406.99 413.46
  A 0.26 0.26 0.0 0 0 407.25 413.72
  L 564.31 413.72
  A 0.26 0.26 0.0 0 0 564.57 413.46
  L 564.57 366.76"
/>
<path stroke="#8086c0" vector-effect="non-scaling-stroke" d="
  M 644.1581 401.3587
  A 19.88 19.88 0.0 0 0 624.2435 381.5135
  L 593.7035 381.5668
  A 19.88 19.88 0.0 0 0 573.8582 401.4814
  L 574.0219 495.2413
  A 19.88 19.88 0.0 0 0 593.9365 515.0865
  L 624.4765 515.0332
  A 19.88 19.88 0.0 0 0 644.3218 495.1186
  L 644.1581 401.3587"
/>
<path stroke="#8086c0" vector-effect="non-scaling-stroke" d="
  M 449.80 419.70
  A 0.33 0.33 0.0 0 0 449.47 419.37
  L 407.31 419.37
  A 0.33 0.33 0.0 0 0 406.98 419.70
  L 406.98 451.48
  A 0.33 0.33 0.0 0 0 407.31 451.81
  L 449.47 451.81
  A 0.33 0.33 0.0 0 0 449.80 451.48
  L 449.80 419.70"
/>
<path stroke="#8086c0" vector-effect="non-scaling-stroke" d="
  M 563.25 421.89
  A 0.49 0.49 0.0 0 0 562.76 421.40
  L 459.96 421.40
  A 0.49 0.49 0.0 0 0 459.47 421.89
  L 459.47 423.93
  A 0.49 0.49 0.0 0 0 459.96 424.42
  L 562.76 424.42
  A 0.49 0.49 0.0 0 0 563.25 423.93
  L 563.25 421.89"
/>
<path stroke="#8086c0" vector-effect="non-scaling-stroke" d="
  M 563.25 429.89
  A 0.44 0.44 0.0 0 0 562.81 429.45
  L 459.95 429.45
  A 0.44 0.44 0.0 0 0 459.51 429.89
  L 459.51 432.01
  A 0.44 0.44 0.0 0 0 459.95 432.45
  L 562.81 432.45
  A 0.44 0.44 0.0 0 0 563.25 432.01
  L 563.25 429.89"
/>
<path stroke="#8086c0" vector-effect="non-scaling-stroke" d="
  M 563.25 438.14
  A 0.38 0.38 0.0 0 0 562.87 437.76
  L 459.89 437.76
  A 0.38 0.38 0.0 0 0 459.51 438.14
  L 459.51 440.38
  A 0.38 0.38 0.0 0 0 459.89 440.76
  L 562.87 440.76
  A 0.38 0.38 0.0 0 0 563.25 440.38
  L 563.25 438.14"
/>
<path stroke="#8086c0" vector-effect="non-scaling-stroke" d="
  M 519.74 446.54
  A 0.37 0.37 0.0 0 0 519.37 446.17
  L 459.87 446.17
  A 0.37 0.37 0.0 0 0 459.50 446.54
  L 459.50 448.82
  A 0.37 0.37 0.0 0 0 459.87 449.19
  L 519.37 449.19
  A 0.37 0.37 0.0 0 0 519.74 448.82
  L 519.74 446.54"
/>
<path stroke="#8086c0" vector-effect="non-scaling-stroke" d="
  M 529.76 509.75
  A 0.33 0.33 0.0 0 0 529.43 509.42
  L 442.79 509.42
  A 0.33 0.33 0.0 0 0 442.46 509.75
  L 442.46 517.41
  A 0.33 0.33 0.0 0 0 442.79 517.74
  L 529.43 517.74
  A 0.33 0.33 0.0 0 0 529.76 517.41
  L 529.76 509.75"
/>
<path stroke="#8086c0" vector-effect="non-scaling-stroke" d="
  M 225.22 569.05
  C 225.32 572.60 226.20 583.62 223.95 586.48
  Q 218.99 592.80 209.46 592.74
  Q 194.52 592.65 192.91 577.89
  Q 191.69 566.72 192.50 555.49
  C 193.09 547.24 196.05 539.60 205.27 538.35
  C 213.71 537.21 221.67 538.71 224.91 547.52
  Q 225.13 548.12 225.71 547.87
  L 226.95 547.32
  Q 227.38 547.13 227.22 546.69
  C 223.53 536.32 212.54 533.76 202.94 536.26
  C 195.06 538.31 191.25 544.74 190.45 552.52
  C 189.41 562.60 188.83 573.73 191.63 583.18
  C 195.17 595.16 207.58 596.85 218.00 593.78
  C 224.37 591.90 228.08 587.43 228.20 580.71
  Q 228.33 573.71 228.21 566.63
  Q 228.20 566.15 227.72 566.15
  L 215.69 566.15
  Q 215.03 566.15 215.05 566.81
  L 215.08 567.96
  Q 215.09 568.57 215.71 568.57
  L 224.73 568.58
  Q 225.20 568.58 225.22 569.05"
/>
<path stroke="#8086c0" vector-effect="non-scaling-stroke" d="
  M 470.45 548.41
  L 462.83 554.13
  Q 462.28 554.54 462.96 554.64
  C 464.65 554.89 465.83 554.89 467.29 553.80
  Q 470.32 551.57 473.28 549.28
  Q 473.67 548.98 473.57 548.50
  C 471.14 536.20 460.11 533.63 449.49 536.60
  Q 443.04 538.40 441.42 544.78
  Q 438.33 556.98 449.65 562.18
  Q 458.42 566.21 463.70 568.29
  C 469.49 570.56 473.84 574.46 473.42 581.15
  C 472.97 588.15 468.26 591.66 461.62 592.29
  C 452.10 593.20 443.76 591.60 441.19 581.26
  Q 441.01 580.54 440.34 580.87
  L 439.23 581.42
  Q 438.71 581.67 438.86 582.22
  Q 441.85 593.20 453.27 594.64
  C 464.67 596.07 476.23 593.64 475.64 579.19
  Q 475.33 571.65 468.38 568.09
  C 460.74 564.17 452.20 561.95 446.02 556.50
  C 442.34 553.26 442.63 547.33 444.68 543.40
  C 447.43 538.14 455.70 537.33 460.77 538.23
  Q 468.62 539.63 470.73 547.58
  Q 470.87 548.09 470.45 548.41"
/>
<path stroke="#8086c0" vector-effect="non-scaling-stroke" d="
  M 800.51 591.76
  C 794.13 593.51 785.78 593.36 780.10 589.45
  A 1.19 1.19 0.0 0 0 778.57 591.25
  Q 780.23 593.00 783.22 593.88
  C 792.09 596.48 810.49 596.32 811.25 583.49
  C 811.89 572.59 799.27 569.73 789.62 567.45
  C 783.08 565.90 777.99 559.22 781.78 552.72
  C 786.07 545.36 799.73 547.19 805.87 551.22
  Q 806.37 551.55 806.72 551.06
  L 807.39 550.11
  Q 807.77 549.58 807.25 549.18
  C 799.33 543.16 779.39 542.87 778.16 556.23
  C 776.42 575.28 807.57 567.26 808.68 581.94
  C 809.04 586.83 804.97 590.54 800.51 591.76"
/>
<path stroke="#8086c0" vector-effect="non-scaling-stroke" d="
  M 281.25 588.68
  C 286.68 596.60 302.59 597.02 309.43 590.99
  C 316.01 585.19 316.30 572.09 315.37 564.20
  C 314.22 554.51 311.45 547.34 300.53 545.73
  C 292.13 544.48 281.98 546.67 279.15 555.97
  C 276.47 564.76 275.71 580.58 281.25 588.68"
/>
<path stroke="#8086c0" vector-effect="non-scaling-stroke" d="
  M 502.32 594.87
  C 509.76 595.94 519.69 593.50 522.47 585.91
  C 525.78 576.85 527.07 557.34 519.01 549.75
  C 514.03 545.06 504.75 544.55 498.50 546.32
  C 486.45 549.74 485.44 565.59 486.75 576.11
  C 488.03 586.47 490.71 593.21 502.32 594.87"
/>
<path stroke="#8086c0" vector-effect="non-scaling-stroke" d="
  M 683.66 553.92
  Q 679.65 563.86 680.96 575.09
  C 682.05 584.36 683.71 592.08 694.31 594.42
  C 705.58 596.92 716.01 593.17 718.23 580.73
  C 719.79 572.00 720.41 558.07 714.56 551.01
  C 707.80 542.87 687.98 543.22 683.66 553.92"
/>
<path stroke="#8086c0" vector-effect="non-scaling-stroke" d="
  M 245.02 591.74
  A 0.43 0.43 0.0 0 1 244.59 591.31
  L 244.58 546.70
  A 0.43 0.43 0.0 0 0 244.16 546.27
  L 242.56 546.26
  A 0.43 0.43 0.0 0 0 242.12 546.69
  L 242.10 593.79
  A 0.43 0.43 0.0 0 0 242.53 594.22
  L 269.30 594.22
  A 0.43 0.43 0.0 0 0 269.73 593.79
  L 269.75 592.17
  A 0.43 0.43 0.0 0 0 269.32 591.74
  L 245.02 591.74"
/>
<path stroke="#8086c0" vector-effect="non-scaling-stroke" d="
  M 352.64 568.77
  C 360.88 563.46 359.67 551.06 350.29 548.07
  Q 341.24 545.18 329.71 546.56
  Q 329.29 546.61 329.29 547.03
  L 329.29 593.54
  Q 329.29 594.16 329.91 594.18
  Q 338.10 594.45 346.24 593.82
  C 354.76 593.15 362.89 587.67 360.58 577.92
  Q 359.14 571.84 352.71 569.39
  Q 352.07 569.15 352.64 568.77"
/>
<path stroke="#8086c0" vector-effect="non-scaling-stroke" d="
  M 404.57 549.24
  L 388.14 587.96
  Q 387.84 588.67 387.54 587.96
  L 370.02 546.73
  A 0.82 0.81 77.4 0 0 369.24 546.23
  L 367.77 546.29
  Q 367.19 546.31 367.41 546.85
  Q 376.45 568.18 385.49 589.51
  Q 386.54 591.99 386.56 594.68
  Q 386.61 602.35 386.56 610.05
  Q 386.55 610.73 387.24 610.74
  L 388.47 610.75
  A 0.59 0.59 0.0 0 0 389.06 610.16
  Q 389.08 602.51 389.06 594.79
  Q 389.06 592.19 390.08 589.78
  Q 399.20 568.31 408.29 546.74
  Q 408.49 546.26 407.97 546.26
  L 376.99 546.26
  Q 376.49 546.26 376.50 546.76
  L 376.51 548.13
  A 0.62 0.61 -0.0 0 0 377.13 548.74
  L 404.24 548.74
  Q 404.78 548.74 404.57 549.24"
/>
<path stroke="#8086c0" vector-effect="non-scaling-stroke" d="
  M 541.51 591.74
  A 0.44 0.44 0.0 0 1 541.07 591.30
  L 541.07 546.68
  A 0.44 0.44 0.0 0 0 540.62 546.24
  L 539.01 546.27
  A 0.44 0.44 0.0 0 0 538.58 546.71
  L 538.58 593.78
  A 0.44 0.44 0.0 0 0 539.02 594.22
  L 565.79 594.23
  A 0.44 0.44 0.0 0 0 566.23 593.79
  L 566.24 592.18
  A 0.44 0.44 0.0 0 0 565.80 591.74
  L 541.51 591.74"
/>
<path stroke="#8086c0" vector-effect="non-scaling-stroke" d="
  M 593.05 592.53
  C 582.66 593.52 577.84 584.35 577.52 575.25
  Q 577.19 565.74 577.43 546.97
  Q 577.44 546.28 576.75 546.26
  L 575.58 546.22
  Q 575.00 546.21 574.99 546.79
  Q 574.69 560.34 575.09 573.88
  C 575.35 582.64 578.13 592.47 587.96 594.54
  C 600.67 597.22 608.36 588.38 609.02 576.50
  Q 609.56 566.84 609.15 546.90
  Q 609.13 546.20 608.44 546.21
  L 607.33 546.24
  A 0.59 0.59 0.0 0 0 606.75 546.84
  Q 606.98 558.49 606.45 576.46
  C 606.20 584.89 601.82 591.69 593.05 592.53"
/>
<path stroke="#8086c0" vector-effect="non-scaling-stroke" d="
  M 637.83 549.20
  A 0.45 0.45 0.0 0 1 638.28 548.75
  L 654.77 548.73
  A 0.45 0.45 0.0 0 0 655.22 548.26
  L 655.17 546.68
  A 0.45 0.45 0.0 0 0 654.72 546.25
  L 618.40 546.29
  A 0.45 0.45 0.0 0 0 617.95 546.73
  L 617.94 548.27
  A 0.45 0.45 0.0 0 0 618.39 548.73
  L 634.79 548.75
  A 0.45 0.45 0.0 0 1 635.24 549.20
  L 635.46 593.81
  A 0.45 0.45 0.0 0 0 635.91 594.26
  L 637.15 594.26
  A 0.45 0.45 0.0 0 0 637.60 593.81
  L 637.83 549.20"
/>
<path stroke="#8086c0" vector-effect="non-scaling-stroke" d="
  M 667.13 546.82
  A 0.56 0.56 0.0 0 0 666.57 546.26
  L 665.21 546.26
  A 0.56 0.56 0.0 0 0 664.65 546.82
  L 664.65 593.68
  A 0.56 0.56 0.0 0 0 665.21 594.24
  L 666.57 594.24
  A 0.56 0.56 0.0 0 0 667.13 593.68
  L 667.13 546.82"
/>
<path stroke="#8086c0" vector-effect="non-scaling-stroke" d="
  M 735.93 551.59
  L 762.07 593.76
  A 1.48 1.48 0.0 0 0 764.80 592.98
  L 764.80 546.89
  Q 764.80 546.23 764.14 546.25
  L 763.02 546.28
  Q 762.33 546.30 762.33 546.98
  L 762.33 588.75
  Q 762.33 589.63 761.87 588.88
  L 735.59 546.56
  A 1.43 1.43 0.0 0 0 732.94 547.32
  L 732.94 593.60
  Q 732.94 594.26 733.60 594.24
  L 734.86 594.21
  Q 735.42 594.19 735.42 593.64
  L 735.42 551.73
  Q 735.42 550.77 735.93 551.59"
/>
<path stroke="#8086c0" vector-effect="non-scaling-stroke" d="
  M 284.21 643.16
  Q 282.88 655.94 280.89 668.69
  C 280.50 671.21 278.96 672.01 276.60 671.35
  A 0.53 0.52 -78.1 0 0 275.95 671.78
  L 275.67 673.74
  Q 275.58 674.38 276.21 674.56
  C 283.18 676.50 284.67 671.99 285.45 666.17
  Q 286.98 654.68 288.49 643.17
  Q 288.56 642.69 289.04 642.69
  L 292.63 642.69
  Q 293.20 642.69 293.28 642.12
  L 293.60 639.62
  Q 293.69 638.95 293.02 638.96
  L 289.70 638.97
  Q 289.04 638.97 289.14 638.32
  L 289.83 633.70
  A 1.35 1.33 -14.8 0 1 290.34 632.84
  Q 291.97 631.65 294.04 632.04
  A 0.64 0.63 -81.2 0 0 294.79 631.49
  L 294.99 629.76
  Q 295.04 629.28 294.58 629.11
  C 286.91 626.32 285.60 632.78 285.00 638.52
  Q 284.95 639.02 284.45 638.99
  L 283.11 638.91
  Q 282.59 638.88 282.51 639.40
  L 282.08 642.27
  Q 282.01 642.77 282.52 642.73
  L 283.72 642.65
  Q 284.27 642.61 284.21 643.16"
/>
<path stroke="#8086c0" vector-effect="non-scaling-stroke" d="
  M 197.99 638.35
  C 199.23 632.28 210.25 632.88 210.13 640.35
  Q 210.12 641.00 210.76 641.00
  L 214.21 641.00
  Q 214.76 641.00 214.77 640.45
  C 215.04 631.35 206.38 628.36 199.07 631.09
  C 192.55 633.52 191.26 641.67 196.26 646.33
  C 199.87 649.71 209.24 650.66 208.30 656.97
  C 207.14 664.66 192.09 664.12 194.63 654.55
  A 0.62 0.61 -82.4 0 0 194.04 653.77
  L 190.26 653.77
  A 0.54 0.54 0.0 0 0 189.72 654.30
  Q 189.53 667.65 203.28 666.20
  Q 211.13 665.37 212.70 658.26
  C 215.87 643.91 196.08 647.63 197.99 638.35"
/>
<path stroke="#8086c0" vector-effect="non-scaling-stroke" d="
  M 558.18 646.15
  A 0.40 0.40 0.0 0 1 557.78 645.69
  L 559.24 635.21
  A 0.40 0.40 0.0 0 1 559.64 634.86
  L 574.61 634.87
  A 0.40 0.40 0.0 0 0 575.00 634.53
  L 575.54 631.23
  A 0.40 0.40 0.0 0 0 575.14 630.77
  L 555.77 630.77
  A 0.40 0.40 0.0 0 0 555.37 631.11
  L 550.54 665.28
  A 0.40 0.40 0.0 0 0 550.94 665.73
  L 554.61 665.75
  A 0.40 0.40 0.0 0 0 555.01 665.40
  L 557.09 650.60
  A 0.40 0.40 0.0 0 1 557.49 650.26
  L 570.65 650.26
  A 0.40 0.40 0.0 0 0 571.05 649.91
  L 571.51 646.59
  A 0.40 0.40 0.0 0 0 571.11 646.13
  L 558.18 646.15"
/>
<path stroke="#8086c0" vector-effect="non-scaling-stroke" d="
  M 316.48 643.15
  Q 315.27 651.88 314.09 660.60
  C 313.46 665.17 316.59 667.78 320.83 665.51
  Q 321.18 665.33 321.24 664.93
  L 321.50 663.23
  Q 321.56 662.85 321.19 662.77
  L 318.69 662.22
  Q 318.03 662.07 318.13 661.41
  L 320.66 643.21
  Q 320.74 642.67 321.29 642.67
  L 323.84 642.70
  Q 324.39 642.71 324.45 642.16
  L 324.78 639.51
  Q 324.85 638.94 324.26 638.94
  L 321.87 638.97
  Q 321.25 638.98 321.34 638.37
  L 322.24 632.18
  Q 322.34 631.54 321.68 631.53
  L 319.47 631.51
  Q 318.92 631.51 318.79 632.04
  L 317.22 638.35
  Q 317.06 639.00 316.39 638.98
  L 315.45 638.93
  Q 314.80 638.91 314.71 639.55
  L 314.37 642.05
  A 0.59 0.59 0.0 0 0 315.00 642.72
  L 315.99 642.63
  Q 316.56 642.58 316.48 643.15"
/>
<path stroke="#8086c0" vector-effect="non-scaling-stroke" d="
  M 682.58 643.22
  Q 680.84 654.55 680.03 661.50
  C 679.52 665.81 683.47 667.18 686.81 665.63
  A 0.87 0.86 81.4 0 0 687.31 664.95
  L 687.56 663.03
  A 0.46 0.46 0.0 0 0 687.00 662.52
  C 684.92 663.03 684.13 661.92 684.39 659.98
  Q 685.54 651.57 686.76 643.14
  Q 686.83 642.67 687.30 642.67
  L 689.86 642.70
  Q 690.43 642.70 690.50 642.14
  L 690.84 639.55
  Q 690.92 638.94 690.30 638.95
  L 687.91 638.98
  Q 687.32 638.98 687.40 638.40
  L 688.29 632.21
  Q 688.39 631.55 687.71 631.54
  L 685.49 631.51
  Q 684.97 631.50 684.84 632.01
  L 683.25 638.56
  A 0.56 0.55 -81.7 0 1 682.69 638.98
  L 681.23 638.91
  Q 680.86 638.90 680.81 639.27
  L 680.44 642.06
  Q 680.34 642.79 681.07 642.72
  L 682.03 642.63
  Q 682.68 642.57 682.58 643.22"
/>
<path stroke="#8086c0" vector-effect="non-scaling-stroke" d="
  M 240.16 645.18
  C 238.21 650.07 236.28 660.76 241.07 664.68
  Q 244.30 667.32 248.66 666.17
  C 256.62 664.07 257.86 654.37 257.79 647.02
  C 257.68 635.35 243.82 635.98 240.16 645.18"
/>
<path stroke="#8086c0" vector-effect="non-scaling-stroke" d="
  M 412.37 641.81
  Q 409.12 636.75 404.14 639.00
  C 397.06 642.19 395.92 653.69 396.98 660.24
  C 398.08 667.01 405.19 668.41 409.02 662.74
  Q 409.51 662.01 409.60 662.89
  C 410.05 667.48 417.11 667.64 416.24 662.92
  Q 416.15 662.38 415.62 662.51
  Q 413.34 663.07 413.62 661.01
  Q 415.12 650.24 416.63 639.46
  Q 416.70 638.97 416.20 638.97
  L 413.80 638.96
  Q 413.30 638.96 413.21 639.45
  L 412.78 641.72
  Q 412.68 642.29 412.37 641.81"
/>
<path stroke="#8086c0" vector-effect="non-scaling-stroke" d="
  M 446.41 642.07
  L 446.50 639.49
  Q 446.52 638.95 445.98 638.95
  L 443.87 638.95
  Q 443.17 638.95 443.08 639.64
  L 439.50 665.07
  Q 439.41 665.74 440.07 665.74
  L 442.99 665.74
  Q 443.62 665.74 443.70 665.12
  Q 444.72 657.36 445.81 649.65
  Q 446.70 643.43 452.75 642.89
  Q 453.15 642.85 453.20 642.46
  L 453.63 639.25
  Q 453.70 638.74 453.21 638.60
  C 449.85 637.59 448.32 639.68 446.96 642.22
  A 0.29 0.29 0.0 0 1 446.41 642.07"
/>
<path stroke="#8086c0" vector-effect="non-scaling-stroke" d="
  M 479.82 653.51
  L 493.47 653.51
  Q 493.90 653.51 493.97 653.09
  C 494.80 647.70 495.11 640.41 488.53 638.59
  Q 483.38 637.17 479.93 640.30
  C 475.06 644.74 472.49 659.03 477.25 664.15
  Q 480.21 667.33 485.29 666.18
  Q 492.01 664.66 493.03 657.08
  Q 493.07 656.73 492.72 656.72
  L 489.50 656.67
  Q 488.99 656.66 488.90 657.16
  C 488.04 661.91 482.60 665.27 479.55 659.94
  Q 478.53 658.16 479.38 653.87
  Q 479.45 653.51 479.82 653.51"
/>
<path stroke="#8086c0" vector-effect="non-scaling-stroke" d="
  M 610.45 641.79
  C 607.73 636.17 600.85 638.18 598.27 642.55
  Q 593.47 650.70 595.55 660.78
  C 596.91 667.34 603.61 668.10 607.18 662.85
  Q 607.65 662.16 607.85 662.98
  Q 608.98 667.72 613.86 665.77
  Q 614.33 665.58 614.40 665.08
  L 614.68 663.09
  Q 614.74 662.70 614.34 662.65
  L 612.49 662.44
  A 0.74 0.73 -83.2 0 1 611.84 661.61
  L 614.92 639.47
  Q 615.00 638.95 614.47 638.95
  L 612.11 638.96
  Q 611.65 638.96 611.55 639.40
  L 611.01 641.72
  Q 610.82 642.55 610.45 641.79"
/>
<path stroke="#8086c0" vector-effect="non-scaling-stroke" d="
  M 651.46 643.56
  Q 652.76 645.54 652.30 648.25
  A 0.50 0.50 0.0 0 0 652.79 648.83
  L 655.99 648.83
  Q 656.58 648.83 656.62 648.25
  Q 657.31 638.60 648.80 638.39
  C 640.75 638.19 638.59 648.62 638.53 654.80
  C 638.48 660.12 639.04 665.37 645.54 666.25
  C 651.50 667.06 655.12 661.80 655.84 656.39
  A 0.37 0.37 0.0 0 0 655.48 655.97
  L 652.23 655.95
  A 0.61 0.60 -86.4 0 0 651.62 656.49
  Q 651.23 660.03 649.15 661.65
  C 646.67 663.59 643.68 662.33 643.19 659.50
  Q 641.86 651.78 645.31 644.64
  C 646.46 642.25 649.62 640.74 651.46 643.56"
/>
<path stroke="#8086c0" vector-effect="non-scaling-stroke" d="
  M 729.85 659.33
  C 732.20 652.99 734.66 638.06 723.48 638.32
  Q 716.75 638.48 714.18 644.99
  C 712.15 650.13 710.39 659.70 714.39 664.19
  Q 717.27 667.43 722.28 666.17
  Q 727.82 664.79 729.85 659.33"
/>
<path stroke="#8086c0" vector-effect="non-scaling-stroke" d="
  M 761.82 642.26
  L 761.91 639.45
  A 0.48 0.48 0.0 0 0 761.44 638.96
  L 758.97 638.95
  Q 758.61 638.94 758.57 639.29
  L 754.93 665.17
  Q 754.85 665.73 755.42 665.73
  L 758.46 665.75
  Q 759.05 665.75 759.12 665.17
  Q 760.18 657.19 761.43 649.27
  Q 762.36 643.40 768.07 642.90
  Q 768.61 642.86 768.68 642.31
  L 769.05 639.23
  Q 769.12 638.70 768.61 638.56
  C 764.98 637.56 763.96 639.82 762.28 642.40
  Q 761.79 643.16 761.82 642.26"
/>
<path stroke="#8086c0" vector-effect="non-scaling-stroke" d="
  M 360.67 644.38
  L 361.38 665.07
  Q 361.40 665.73 362.06 665.74
  L 365.40 665.75
  Q 366.06 665.75 366.30 665.13
  L 376.23 639.55
  Q 376.46 638.96 375.82 638.96
  L 373.12 638.95
  Q 372.41 638.95 372.18 639.61
  L 364.80 660.31
  Q 364.79 660.33 364.79 660.31
  Q 364.73 649.88 364.03 639.46
  Q 363.99 638.95 363.48 638.95
  L 359.50 638.96
  Q 358.95 638.96 358.79 639.49
  L 352.60 659.96
  Q 352.55 660.12 352.53 659.96
  L 350.59 639.50
  Q 350.54 638.97 350.01 638.96
  L 347.02 638.94
  Q 346.48 638.93 346.54 639.47
  L 349.36 665.08
  Q 349.43 665.73 350.09 665.74
  L 353.48 665.75
  Q 354.01 665.75 354.18 665.26
  Q 357.87 655.01 360.61 644.37
  A 0.03 0.03 0.0 0 1 360.67 644.38"
/>
<path stroke="#8086c0" vector-effect="non-scaling-stroke" d="
  M 798.14 659.46
  L 795.32 639.48
  Q 795.25 638.96 794.73 638.96
  L 791.29 638.95
  Q 790.81 638.95 790.89 639.43
  Q 792.83 651.08 794.72 662.69
  Q 795.28 666.12 794.32 668.15
  Q 792.66 671.67 788.73 671.64
  A 1.59 1.59 0.0 0 0 788.43 674.79
  Q 794.11 675.84 797.44 670.09
  Q 801.54 663.01 810.79 639.43
  Q 810.97 638.97 810.48 638.97
  L 807.18 638.94
  Q 806.75 638.94 806.59 639.34
  L 798.81 659.54
  A 0.35 0.35 0.0 0 1 798.14 659.46"
/>
<path stroke="#8086c0" vector-effect="non-scaling-stroke" d="
  M 385.22 357.13
  A 5.36 5.36 0.0 0 0 379.86 351.77
  A 5.36 5.36 0.0 0 0 374.50 357.13
  A 5.36 5.36 0.0 0 0 379.86 362.49
  A 5.36 5.36 0.0 0 0 385.22 357.13"
/>
<path stroke="#8086c0" vector-effect="non-scaling-stroke" d="
  M 561.54 369.85
  A 0.34 0.34 0.0 0 0 561.20 369.51
  L 410.34 369.51
  A 0.34 0.34 0.0 0 0 410.00 369.85
  L 410.00 410.37
  A 0.34 0.34 0.0 0 0 410.34 410.71
  L 561.20 410.71
  A 0.34 0.34 0.0 0 0 561.54 410.37
  L 561.54 369.85"
/>
<path stroke="#8086c0" vector-effect="non-scaling-stroke" d="
  M 616.36 393.19
  A 1.92 1.92 0.0 0 0 614.44 391.27
  L 603.38 391.27
  A 1.92 1.92 0.0 0 0 601.46 393.19
  L 601.46 393.33
  A 1.92 1.92 0.0 0 0 603.38 395.25
  L 614.44 395.25
  A 1.92 1.92 0.0 0 0 616.36 393.33
  L 616.36 393.19"
/>
<path stroke="#8086c0" vector-effect="non-scaling-stroke" d="
  M 640.23 403.02
  A 0.32 0.32 0.0 0 0 639.91 402.70
  L 577.95 402.70
  A 0.32 0.32 0.0 0 0 577.63 403.02
  L 577.63 490.00
  A 0.32 0.32 0.0 0 0 577.95 490.32
  L 639.91 490.32
  A 0.32 0.32 0.0 0 0 640.23 490.00
  L 640.23 403.02"
/>
<path stroke="#8086c0" vector-effect="non-scaling-stroke" d="
  M 614.6734 500.6055
  A 3.97 3.97 0.0 0 0 610.6347 496.7053
  L 607.7352 496.7560
  A 3.97 3.97 0.0 0 0 603.8351 500.7946
  L 603.8466 501.4545
  A 3.97 3.97 0.0 0 0 607.8853 505.3547
  L 610.7848 505.3040
  A 3.97 3.97 0.0 0 0 614.6849 501.2654
  L 614.6734 500.6055"
/>
<path stroke="#8086c0" vector-effect="non-scaling-stroke" d="
  M 614.40 410.04
  A 5.99 5.99 0.0 0 0 608.41 404.05
  A 5.99 5.99 0.0 0 0 602.42 410.04
  A 5.99 5.99 0.0 0 0 608.41 416.03
  A 5.99 5.99 0.0 0 0 614.40 410.04"
/>
<path stroke="#8086c0" vector-effect="non-scaling-stroke" d="
  M 637.51 418.31
  A 0.29 0.29 0.0 0 0 637.22 418.02
  L 580.28 418.02
  A 0.29 0.29 0.0 0 0 579.99 418.31
  L 579.99 440.19
  A 0.29 0.29 0.0 0 0 580.28 440.48
  L 637.22 440.48
  A 0.29 0.29 0.0 0 0 637.51 440.19
  L 637.51 418.31"
/>
<path stroke="#8086c0" vector-effect="non-scaling-stroke" d="
  M 607.75 442.11
  A 0.34 0.34 0.0 0 0 607.41 441.77
  L 579.97 441.77
  A 0.34 0.34 0.0 0 0 579.63 442.11
  L 579.63 463.89
  A 0.34 0.34 0.0 0 0 579.97 464.23
  L 607.41 464.23
  A 0.34 0.34 0.0 0 0 607.75 463.89
  L 607.75 442.11"
/>
<path stroke="#8086c0" vector-effect="non-scaling-stroke" d="
  M 637.51 442.11
  A 0.33 0.33 0.0 0 0 637.18 441.78
  L 609.76 441.78
  A 0.33 0.33 0.0 0 0 609.43 442.11
  L 609.43 463.91
  A 0.33 0.33 0.0 0 0 609.76 464.24
  L 637.18 464.24
  A 0.33 0.33 0.0 0 0 637.51 463.91
  L 637.51 442.11"
/>
<path stroke="#8086c0" vector-effect="non-scaling-stroke" d="
  M 637.51 467.52
  A 0.28 0.28 0.0 0 0 637.23 467.24
  L 580.27 467.24
  A 0.28 0.28 0.0 0 0 579.99 467.52
  L 579.99 469.96
  A 0.28 0.28 0.0 0 0 580.27 470.24
  L 637.23 470.24
  A 0.28 0.28 0.0 0 0 637.51 469.96
  L 637.51 467.52"
/>
<path stroke="#8086c0" vector-effect="non-scaling-stroke" d="
  M 637.51 473.28
  A 0.35 0.35 0.0 0 0 637.16 472.93
  L 580.32 472.93
  A 0.35 0.35 0.0 0 0 579.97 473.28
  L 579.97 475.60
  A 0.35 0.35 0.0 0 0 580.32 475.95
  L 637.16 475.95
  A 0.35 0.35 0.0 0 0 637.51 475.60
  L 637.51 473.28"
/>
<path stroke="#8086c0" vector-effect="non-scaling-stroke" d="
  M 637.51 478.54
  A 0.28 0.28 0.0 0 0 637.23 478.26
  L 580.27 478.26
  A 0.28 0.28 0.0 0 0 579.99 478.54
  L 579.99 480.98
  A 0.28 0.28 0.0 0 0 580.27 481.26
  L 637.23 481.26
  A 0.28 0.28 0.0 0 0 637.51 480.98
  L 637.51 478.54"
/>
<path stroke="#8086c0" vector-effect="non-scaling-stroke" d="
  M 613.75 483.97
  A 0.33 0.33 0.0 0 0 613.42 483.64
  L 580.32 483.64
  A 0.33 0.33 0.0 0 0 579.99 483.97
  L 579.99 486.33
  A 0.33 0.33 0.0 0 0 580.32 486.66
  L 613.42 486.66
  A 0.33 0.33 0.0 0 0 613.75 486.33
  L 613.75 483.97"
/>
<path stroke="#8086c0" vector-effect="non-scaling-stroke" d="
  M 611.38 409.99
  A 2.98 2.98 0.0 0 0 608.40 407.01
  A 2.98 2.98 0.0 0 0 605.42 409.99
  A 2.98 2.98 0.0 0 0 608.40 412.97
  A 2.98 2.98 0.0 0 0 611.38 409.99"
/>
<path stroke="#8086c0" vector-effect="non-scaling-stroke" d="
  M 634.51 421.02
  A 0.29 0.29 0.0 0 0 634.22 420.73
  L 582.96 420.73
  A 0.29 0.29 0.0 0 0 582.67 421.02
  L 582.67 437.18
  A 0.29 0.29 0.0 0 0 582.96 437.47
  L 634.22 437.47
  A 0.29 0.29 0.0 0 0 634.51 437.18
  L 634.51 421.02"
/>
<path stroke="#8086c0" vector-effect="non-scaling-stroke" d="
  M 446.50 422.78
  A 0.38 0.38 0.0 0 0 446.12 422.40
  L 410.38 422.40
  A 0.38 0.38 0.0 0 0 410.00 422.78
  L 410.00 448.42
  A 0.38 0.38 0.0 0 0 410.38 448.80
  L 446.12 448.80
  A 0.38 0.38 0.0 0 0 446.50 448.42
  L 446.50 422.78"
/>
<path stroke="#8086c0" vector-effect="non-scaling-stroke" d="
  M 605.04 445.10
  A 0.32 0.32 0.0 0 0 604.72 444.78
  L 583.32 444.78
  A 0.32 0.32 0.0 0 0 583.00 445.10
  L 583.00 461.20
  A 0.32 0.32 0.0 0 0 583.32 461.52
  L 604.72 461.52
  A 0.32 0.32 0.0 0 0 605.04 461.20
  L 605.04 445.10"
/>
<path stroke="#8086c0" vector-effect="non-scaling-stroke" d="
  M 634.50 445.05
  A 0.27 0.27 0.0 0 0 634.23 444.78
  L 612.73 444.78
  A 0.27 0.27 0.0 0 0 612.46 445.05
  L 612.46 461.25
  A 0.27 0.27 0.0 0 0 612.73 461.52
  L 634.23 461.52
  A 0.27 0.27 0.0 0 0 634.50 461.25
  L 634.50 445.05"
/>
<path stroke="#8086c0" vector-effect="non-scaling-stroke" d="
  M 283.61 552.78
  C 279.67 557.94 279.24 567.69 279.70 573.82
  C 280.44 583.63 282.49 591.14 293.32 592.33
  C 302.07 593.29 310.04 590.95 312.06 581.51
  C 313.73 573.70 314.50 559.08 308.99 552.54
  C 303.66 546.21 288.65 546.21 283.61 552.78"
/>
<path stroke="#8086c0" vector-effect="non-scaling-stroke" d="
  M 520.59 583.82
  Q 524.36 572.57 521.30 559.00
  C 519.10 549.28 511.82 547.53 503.00 548.08
  C 494.14 548.64 490.78 553.86 489.48 562.30
  C 487.80 573.28 487.96 591.36 502.64 592.48
  C 510.07 593.05 517.96 591.65 520.59 583.82"
/>
<path stroke="#8086c0" vector-effect="non-scaling-stroke" d="
  M 687.64 588.11
  C 692.86 594.11 706.55 594.06 712.06 588.51
  C 717.92 582.59 717.20 568.93 715.99 561.01
  C 714.87 553.72 711.52 549.35 703.95 548.22
  C 693.48 546.65 685.69 549.96 684.02 561.26
  C 682.84 569.32 682.17 581.83 687.64 588.11"
/>
<path stroke="#8086c0" vector-effect="non-scaling-stroke" d="
  M 347.19 568.94
  C 353.26 566.23 358.18 561.25 354.63 554.88
  C 350.98 548.32 338.64 548.41 332.18 548.84
  Q 331.77 548.87 331.77 549.29
  L 331.77 591.21
  Q 331.77 591.61 332.17 591.63
  C 339.93 592.01 355.78 592.65 358.17 583.52
  C 359.66 577.79 355.57 572.29 350.04 570.66
  Q 348.30 570.15 347.19 569.65
  Q 346.39 569.29 347.19 568.94"
/>
<path stroke="#8086c0" vector-effect="non-scaling-stroke" d="
  M 248.66 642.08
  C 242.32 643.29 241.67 656.68 243.31 661.09
  A 1.33 1.29 3.5 0 0 243.95 661.79
  Q 248.78 664.15 251.09 659.75
  C 252.65 656.78 256.87 640.52 248.66 642.08"
/>
<path stroke="#8086c0" vector-effect="non-scaling-stroke" d="
  M 403.9306 662.7610
  A 10.67 4.79 100.8 0 0 410.6352 653.1776
  A 10.67 4.79 100.8 0 0 407.9294 641.7990
  A 10.67 4.79 100.8 0 0 401.2248 651.3824
  A 10.67 4.79 100.8 0 0 403.9306 662.7610"
/>
<path stroke="#8086c0" vector-effect="non-scaling-stroke" d="
  M 487.97 642.40
  C 482.99 641.03 481.01 644.94 479.95 649.13
  Q 479.79 649.77 480.45 649.77
  L 489.32 649.78
  Q 489.86 649.78 489.94 649.24
  Q 490.42 645.85 488.70 642.96
  A 1.21 1.21 0.0 0 0 487.97 642.40"
/>
<path stroke="#8086c0" vector-effect="non-scaling-stroke" d="
  M 602.2489 662.7645
  A 10.67 4.79 100.7 0 0 608.9367 653.1693
  A 10.67 4.79 100.7 0 0 606.2111 641.7955
  A 10.67 4.79 100.7 0 0 599.5233 651.3907
  A 10.67 4.79 100.7 0 0 602.2489 662.7645"
/>
<path stroke="#8086c0" vector-effect="non-scaling-stroke" d="
  M 723.19 661.69
  C 727.56 658.57 727.88 648.92 727.01 644.39
  A 1.70 1.62 -74.4 0 0 726.54 643.51
  Q 724.35 641.41 721.86 642.26
  C 716.77 644.00 715.88 655.05 716.59 659.24
  C 717.15 662.51 720.63 663.52 723.19 661.69"
/>
</g>
<path fill="#ffffff" d="
  M 474.62 0.00
  L 526.78 0.00
  L 527.04 0.95
  Q 500.56 -0.24 474.03 0.92
  Q 474.12 0.40 474.62 0.00
  Z"
/>
<path fill="#010c80" d="
  M 527.04 0.95
  L 530.71 1.11
  L 542.05 1.78
  L 544.43 2.12
  L 553.09 2.62
  Q 553.74 2.97 554.70 3.01
  L 569.04 4.66
  L 570.71 4.88
  L 613.29 12.74
  L 629.44 16.72
  L 636.52 18.73
  L 643.48 20.73
  L 656.36 24.79
  L 662.27 26.73
  L 673.59 30.74
  L 686.24 35.49
  Q 692.50 38.45 698.88 41.19
  C 779.56 75.83 849.60 131.96 901.54 201.72
  Q 980.58 307.86 996.96 441.45
  Q 997.05 442.48 997.43 443.13
  L 997.94 451.45
  L 998.14 452.55
  L 998.93 461.26
  Q 998.79 464.06 999.43 465.34
  L 999.82 478.75
  L 1000.33 485.76
  L 1000.19 514.28
  L 999.90 519.54
  L 999.38 534.39
  L 998.90 539.02
  L 998.37 547.38
  L 997.96 549.81
  Q 981.11 705.03 881.48 823.40
  C 875.05 831.03 867.56 839.04 860.46 846.73
  Q 843.40 865.07 824.35 881.14
  Q 817.95 885.95 811.69 890.95
  C 741.05 947.39 657.75 982.65 568.00 995.35
  Q 552.00 997.61 529.79 998.92
  Q 528.90 999.58 527.22 999.12
  Q 500.56 1000.14 473.96 999.05
  L 471.95 998.97
  C 353.72 991.87 242.95 944.41 157.00 862.98
  Q 156.85 862.84 156.73 862.84
  Q 156.54 862.83 156.43 863.03
  L 137.98 844.58
  Q 138.18 844.49 138.22 844.38
  Q 138.26 844.29 138.13 844.15
  C 67.18 769.30 20.96 674.93 5.90 572.85
  Q 5.90 572.81 5.59 569.62
  Q 5.39 567.55 4.69 565.74
  L 2.82 547.98
  Q 2.54 548.61 2.67 547.55
  L 1.09 523.43
  L 0.91 514.48
  L 0.89 485.99
  L 1.16 475.84
  L 1.75 464.95
  Q 1.96 464.26 2.13 461.75
  Q 4.37 429.49 11.83 395.03
  Q 34.48 290.48 97.68 204.38
  Q 141.56 144.59 199.25 101.18
  Q 313.61 15.13 457.70 1.94
  Q 458.15 1.67 458.77 1.78
  L 471.46 1.11
  L 474.03 0.92
  Q 500.56 -0.24 527.04 0.95
  Z
  M 993.54 499.99
  A 493.04 493.04 0.0 0 0 500.50 6.95
  A 493.04 493.04 0.0 0 0 7.46 499.99
  A 493.04 493.04 0.0 0 0 500.50 993.03
  A 493.04 493.04 0.0 0 0 993.54 499.99
  Z"
/>
<path fill="#ffffff" d="
  M 471.46 1.11
  L 458.77 1.78
  Q 459.30 1.20 460.12 1.16
  Q 465.78 0.88 471.46 1.11
  Z"
/>
<path fill="#ffffff" d="
  M 530.71 1.11
  Q 537.00 0.80 541.38 1.12
  Q 541.86 1.16 542.05 1.78
  L 530.71 1.11
  Z"
/>
<path fill="#ffffff" d="
  M 457.70 1.94
  Q 313.61 15.13 199.25 101.18
  Q 141.56 144.59 97.68 204.38
  Q 34.48 290.48 11.83 395.03
  Q 4.37 429.49 2.13 461.75
  Q 1.96 464.26 1.75 464.95
  Q 1.85 458.89 2.43 452.99
  Q 4.57 431.54 8.27 410.34
  Q 10.01 400.35 12.21 390.72
  Q 40.89 265.29 125.52 168.87
  Q 131.29 162.29 139.19 154.28
  C 147.76 145.60 156.68 136.44 165.33 128.64
  C 244.62 57.18 344.63 12.74 451.00 2.24
  Q 454.36 1.90 457.70 1.94
  Z"
/>
<path fill="#ffffff" d="
  M 544.43 2.12
  Q 549.20 1.52 553.09 2.62
  L 544.43 2.12
  Z"
/>
<path fill="#ffffff" d="
  M 554.70 3.01
  Q 561.83 2.99 569.04 4.66
  L 554.70 3.01
  Z"
/>
<path fill="#ffffff" d="
  M 570.71 4.88
  Q 592.25 7.45 613.29 12.74
  L 570.71 4.88
  Z"
/>
<path fill="#ffffff" d="
  M 993.54 499.99
  A 493.04 493.04 0.0 0 1 500.50 993.03
  A 493.04 493.04 0.0 0 1 7.46 499.99
  A 493.04 493.04 0.0 0 1 500.50 6.95
  A 493.04 493.04 0.0 0 1 993.54 499.99
  Z
  M 980.34 499.99
  A 479.84 479.84 0.0 0 0 500.50 20.15
  A 479.84 479.84 0.0 0 0 20.66 499.99
  A 479.84 479.84 0.0 0 0 500.50 979.83
  A 479.84 479.84 0.0 0 0 980.34 499.99
  Z"
/>
<path fill="#ffffff" d="
  M 629.44 16.72
  L 636.52 18.73
  L 629.44 16.72
  Z"
/>
<path fill="#ffffff" d="
  M 636.52 18.73
  L 643.48 20.73
  L 636.52 18.73
  Z"
/>
<path fill="#010c80" d="
  M 980.34 499.99
  A 479.84 479.84 0.0 0 1 500.50 979.83
  A 479.84 479.84 0.0 0 1 20.66 499.99
  A 479.84 479.84 0.0 0 1 500.50 20.15
  A 479.84 479.84 0.0 0 1 980.34 499.99
  Z
  M 454.43 486.99
  L 453.19 505.19
  A 0.51 0.51 0.0 0 0 453.70 505.74
  L 458.46 505.74
  Q 459.17 505.74 459.23 505.04
  L 460.79 486.98
  Q 460.84 486.31 461.52 486.31
  L 510.97 486.31
  A 0.44 0.44 0.0 0 1 511.41 486.72
  L 513.01 505.27
  Q 513.05 505.74 513.52 505.74
  L 518.41 505.74
  Q 519.07 505.74 519.02 505.09
  L 517.44 486.83
  Q 517.40 486.31 517.92 486.31
  L 570.01 486.31
  Q 570.58 486.31 570.58 485.74
  L 570.59 466.78
  Q 570.59 466.22 570.03 466.22
  L 363.68 466.22
  Q 363.14 466.22 363.14 465.68
  L 363.14 342.58
  A 0.53 0.53 0.0 0 1 363.67 342.05
  L 608.38 342.05
  A 0.70 0.70 0.0 0 1 609.08 342.75
  L 609.06 378.04
  Q 609.06 378.51 609.54 378.51
  L 614.52 378.51
  Q 615.13 378.51 615.13 377.90
  Q 615.02 361.69 615.16 345.51
  Q 615.29 329.74 603.55 326.08
  Q 600.04 324.98 584.83 324.99
  Q 481.94 325.02 379.05 324.99
  Q 370.76 324.99 367.16 326.46
  C 359.01 329.79 356.76 336.71 356.77 345.40
  Q 356.77 406.57 356.74 467.75
  C 356.74 480.05 364.62 486.31 376.13 486.30
  Q 414.97 486.27 453.82 486.33
  Q 454.47 486.33 454.43 486.99
  Z
  M 388.22 357.14
  A 8.36 8.36 0.0 0 0 379.86 348.78
  A 8.36 8.36 0.0 0 0 371.50 357.14
  A 8.36 8.36 0.0 0 0 379.86 365.50
  A 8.36 8.36 0.0 0 0 388.22 357.14
  Z
  M 564.57 366.76
  A 0.26 0.26 0.0 0 0 564.31 366.50
  L 407.25 366.50
  A 0.26 0.26 0.0 0 0 406.99 366.76
  L 406.99 413.46
  A 0.26 0.26 0.0 0 0 407.25 413.72
  L 564.31 413.72
  A 0.26 0.26 0.0 0 0 564.57 413.46
  L 564.57 366.76
  Z
  M 644.1581 401.3587
  A 19.88 19.88 0.0 0 0 624.2435 381.5135
  L 593.7035 381.5668
  A 19.88 19.88 0.0 0 0 573.8582 401.4814
  L 574.0219 495.2413
  A 19.88 19.88 0.0 0 0 593.9365 515.0865
  L 624.4765 515.0332
  A 19.88 19.88 0.0 0 0 644.3218 495.1186
  L 644.1581 401.3587
  Z
  M 449.80 419.70
  A 0.33 0.33 0.0 0 0 449.47 419.37
  L 407.31 419.37
  A 0.33 0.33 0.0 0 0 406.98 419.70
  L 406.98 451.48
  A 0.33 0.33 0.0 0 0 407.31 451.81
  L 449.47 451.81
  A 0.33 0.33 0.0 0 0 449.80 451.48
  L 449.80 419.70
  Z
  M 563.25 421.89
  A 0.49 0.49 0.0 0 0 562.76 421.40
  L 459.96 421.40
  A 0.49 0.49 0.0 0 0 459.47 421.89
  L 459.47 423.93
  A 0.49 0.49 0.0 0 0 459.96 424.42
  L 562.76 424.42
  A 0.49 0.49 0.0 0 0 563.25 423.93
  L 563.25 421.89
  Z
  M 563.25 429.89
  A 0.44 0.44 0.0 0 0 562.81 429.45
  L 459.95 429.45
  A 0.44 0.44 0.0 0 0 459.51 429.89
  L 459.51 432.01
  A 0.44 0.44 0.0 0 0 459.95 432.45
  L 562.81 432.45
  A 0.44 0.44 0.0 0 0 563.25 432.01
  L 563.25 429.89
  Z
  M 563.25 438.14
  A 0.38 0.38 0.0 0 0 562.87 437.76
  L 459.89 437.76
  A 0.38 0.38 0.0 0 0 459.51 438.14
  L 459.51 440.38
  A 0.38 0.38 0.0 0 0 459.89 440.76
  L 562.87 440.76
  A 0.38 0.38 0.0 0 0 563.25 440.38
  L 563.25 438.14
  Z
  M 519.74 446.54
  A 0.37 0.37 0.0 0 0 519.37 446.17
  L 459.87 446.17
  A 0.37 0.37 0.0 0 0 459.50 446.54
  L 459.50 448.82
  A 0.37 0.37 0.0 0 0 459.87 449.19
  L 519.37 449.19
  A 0.37 0.37 0.0 0 0 519.74 448.82
  L 519.74 446.54
  Z
  M 529.76 509.75
  A 0.33 0.33 0.0 0 0 529.43 509.42
  L 442.79 509.42
  A 0.33 0.33 0.0 0 0 442.46 509.75
  L 442.46 517.41
  A 0.33 0.33 0.0 0 0 442.79 517.74
  L 529.43 517.74
  A 0.33 0.33 0.0 0 0 529.76 517.41
  L 529.76 509.75
  Z
  M 225.22 569.05
  C 225.32 572.60 226.20 583.62 223.95 586.48
  Q 218.99 592.80 209.46 592.74
  Q 194.52 592.65 192.91 577.89
  Q 191.69 566.72 192.50 555.49
  C 193.09 547.24 196.05 539.60 205.27 538.35
  C 213.71 537.21 221.67 538.71 224.91 547.52
  Q 225.13 548.12 225.71 547.87
  L 226.95 547.32
  Q 227.38 547.13 227.22 546.69
  C 223.53 536.32 212.54 533.76 202.94 536.26
  C 195.06 538.31 191.25 544.74 190.45 552.52
  C 189.41 562.60 188.83 573.73 191.63 583.18
  C 195.17 595.16 207.58 596.85 218.00 593.78
  C 224.37 591.90 228.08 587.43 228.20 580.71
  Q 228.33 573.71 228.21 566.63
  Q 228.20 566.15 227.72 566.15
  L 215.69 566.15
  Q 215.03 566.15 215.05 566.81
  L 215.08 567.96
  Q 215.09 568.57 215.71 568.57
  L 224.73 568.58
  Q 225.20 568.58 225.22 569.05
  Z
  M 470.45 548.41
  L 462.83 554.13
  Q 462.28 554.54 462.96 554.64
  C 464.65 554.89 465.83 554.89 467.29 553.80
  Q 470.32 551.57 473.28 549.28
  Q 473.67 548.98 473.57 548.50
  C 471.14 536.20 460.11 533.63 449.49 536.60
  Q 443.04 538.40 441.42 544.78
  Q 438.33 556.98 449.65 562.18
  Q 458.42 566.21 463.70 568.29
  C 469.49 570.56 473.84 574.46 473.42 581.15
  C 472.97 588.15 468.26 591.66 461.62 592.29
  C 452.10 593.20 443.76 591.60 441.19 581.26
  Q 441.01 580.54 440.34 580.87
  L 439.23 581.42
  Q 438.71 581.67 438.86 582.22
  Q 441.85 593.20 453.27 594.64
  C 464.67 596.07 476.23 593.64 475.64 579.19
  Q 475.33 571.65 468.38 568.09
  C 460.74 564.17 452.20 561.95 446.02 556.50
  C 442.34 553.26 442.63 547.33 444.68 543.40
  C 447.43 538.14 455.70 537.33 460.77 538.23
  Q 468.62 539.63 470.73 547.58
  Q 470.87 548.09 470.45 548.41
  Z
  M 800.51 591.76
  C 794.13 593.51 785.78 593.36 780.10 589.45
  A 1.19 1.19 0.0 0 0 778.57 591.25
  Q 780.23 593.00 783.22 593.88
  C 792.09 596.48 810.49 596.32 811.25 583.49
  C 811.89 572.59 799.27 569.73 789.62 567.45
  C 783.08 565.90 777.99 559.22 781.78 552.72
  C 786.07 545.36 799.73 547.19 805.87 551.22
  Q 806.37 551.55 806.72 551.06
  L 807.39 550.11
  Q 807.77 549.58 807.25 549.18
  C 799.33 543.16 779.39 542.87 778.16 556.23
  C 776.42 575.28 807.57 567.26 808.68 581.94
  C 809.04 586.83 804.97 590.54 800.51 591.76
  Z
  M 281.25 588.68
  C 286.68 596.60 302.59 597.02 309.43 590.99
  C 316.01 585.19 316.30 572.09 315.37 564.20
  C 314.22 554.51 311.45 547.34 300.53 545.73
  C 292.13 544.48 281.98 546.67 279.15 555.97
  C 276.47 564.76 275.71 580.58 281.25 588.68
  Z
  M 502.32 594.87
  C 509.76 595.94 519.69 593.50 522.47 585.91
  C 525.78 576.85 527.07 557.34 519.01 549.75
  C 514.03 545.06 504.75 544.55 498.50 546.32
  C 486.45 549.74 485.44 565.59 486.75 576.11
  C 488.03 586.47 490.71 593.21 502.32 594.87
  Z
  M 683.66 553.92
  Q 679.65 563.86 680.96 575.09
  C 682.05 584.36 683.71 592.08 694.31 594.42
  C 705.58 596.92 716.01 593.17 718.23 580.73
  C 719.79 572.00 720.41 558.07 714.56 551.01
  C 707.80 542.87 687.98 543.22 683.66 553.92
  Z
  M 245.02 591.74
  A 0.43 0.43 0.0 0 1 244.59 591.31
  L 244.58 546.70
  A 0.43 0.43 0.0 0 0 244.16 546.27
  L 242.56 546.26
  A 0.43 0.43 0.0 0 0 242.12 546.69
  L 242.10 593.79
  A 0.43 0.43 0.0 0 0 242.53 594.22
  L 269.30 594.22
  A 0.43 0.43 0.0 0 0 269.73 593.79
  L 269.75 592.17
  A 0.43 0.43 0.0 0 0 269.32 591.74
  L 245.02 591.74
  Z
  M 352.64 568.77
  C 360.88 563.46 359.67 551.06 350.29 548.07
  Q 341.24 545.18 329.71 546.56
  Q 329.29 546.61 329.29 547.03
  L 329.29 593.54
  Q 329.29 594.16 329.91 594.18
  Q 338.10 594.45 346.24 593.82
  C 354.76 593.15 362.89 587.67 360.58 577.92
  Q 359.14 571.84 352.71 569.39
  Q 352.07 569.15 352.64 568.77
  Z
  M 404.57 549.24
  L 388.14 587.96
  Q 387.84 588.67 387.54 587.96
  L 370.02 546.73
  A 0.82 0.81 77.4 0 0 369.24 546.23
  L 367.77 546.29
  Q 367.19 546.31 367.41 546.85
  Q 376.45 568.18 385.49 589.51
  Q 386.54 591.99 386.56 594.68
  Q 386.61 602.35 386.56 610.05
  Q 386.55 610.73 387.24 610.74
  L 388.47 610.75
  A 0.59 0.59 0.0 0 0 389.06 610.16
  Q 389.08 602.51 389.06 594.79
  Q 389.06 592.19 390.08 589.78
  Q 399.20 568.31 408.29 546.74
  Q 408.49 546.26 407.97 546.26
  L 376.99 546.26
  Q 376.49 546.26 376.50 546.76
  L 376.51 548.13
  A 0.62 0.61 -0.0 0 0 377.13 548.74
  L 404.24 548.74
  Q 404.78 548.74 404.57 549.24
  Z
  M 541.51 591.74
  A 0.44 0.44 0.0 0 1 541.07 591.30
  L 541.07 546.68
  A 0.44 0.44 0.0 0 0 540.62 546.24
  L 539.01 546.27
  A 0.44 0.44 0.0 0 0 538.58 546.71
  L 538.58 593.78
  A 0.44 0.44 0.0 0 0 539.02 594.22
  L 565.79 594.23
  A 0.44 0.44 0.0 0 0 566.23 593.79
  L 566.24 592.18
  A 0.44 0.44 0.0 0 0 565.80 591.74
  L 541.51 591.74
  Z
  M 593.05 592.53
  C 582.66 593.52 577.84 584.35 577.52 575.25
  Q 577.19 565.74 577.43 546.97
  Q 577.44 546.28 576.75 546.26
  L 575.58 546.22
  Q 575.00 546.21 574.99 546.79
  Q 574.69 560.34 575.09 573.88
  C 575.35 582.64 578.13 592.47 587.96 594.54
  C 600.67 597.22 608.36 588.38 609.02 576.50
  Q 609.56 566.84 609.15 546.90
  Q 609.13 546.20 608.44 546.21
  L 607.33 546.24
  A 0.59 0.59 0.0 0 0 606.75 546.84
  Q 606.98 558.49 606.45 576.46
  C 606.20 584.89 601.82 591.69 593.05 592.53
  Z
  M 637.83 549.20
  A 0.45 0.45 0.0 0 1 638.28 548.75
  L 654.77 548.73
  A 0.45 0.45 0.0 0 0 655.22 548.26
  L 655.17 546.68
  A 0.45 0.45 0.0 0 0 654.72 546.25
  L 618.40 546.29
  A 0.45 0.45 0.0 0 0 617.95 546.73
  L 617.94 548.27
  A 0.45 0.45 0.0 0 0 618.39 548.73
  L 634.79 548.75
  A 0.45 0.45 0.0 0 1 635.24 549.20
  L 635.46 593.81
  A 0.45 0.45 0.0 0 0 635.91 594.26
  L 637.15 594.26
  A 0.45 0.45 0.0 0 0 637.60 593.81
  L 637.83 549.20
  Z
  M 667.13 546.82
  A 0.56 0.56 0.0 0 0 666.57 546.26
  L 665.21 546.26
  A 0.56 0.56 0.0 0 0 664.65 546.82
  L 664.65 593.68
  A 0.56 0.56 0.0 0 0 665.21 594.24
  L 666.57 594.24
  A 0.56 0.56 0.0 0 0 667.13 593.68
  L 667.13 546.82
  Z
  M 735.93 551.59
  L 762.07 593.76
  A 1.48 1.48 0.0 0 0 764.80 592.98
  L 764.80 546.89
  Q 764.80 546.23 764.14 546.25
  L 763.02 546.28
  Q 762.33 546.30 762.33 546.98
  L 762.33 588.75
  Q 762.33 589.63 761.87 588.88
  L 735.59 546.56
  A 1.43 1.43 0.0 0 0 732.94 547.32
  L 732.94 593.60
  Q 732.94 594.26 733.60 594.24
  L 734.86 594.21
  Q 735.42 594.19 735.42 593.64
  L 735.42 551.73
  Q 735.42 550.77 735.93 551.59
  Z
  M 284.21 643.16
  Q 282.88 655.94 280.89 668.69
  C 280.50 671.21 278.96 672.01 276.60 671.35
  A 0.53 0.52 -78.1 0 0 275.95 671.78
  L 275.67 673.74
  Q 275.58 674.38 276.21 674.56
  C 283.18 676.50 284.67 671.99 285.45 666.17
  Q 286.98 654.68 288.49 643.17
  Q 288.56 642.69 289.04 642.69
  L 292.63 642.69
  Q 293.20 642.69 293.28 642.12
  L 293.60 639.62
  Q 293.69 638.95 293.02 638.96
  L 289.70 638.97
  Q 289.04 638.97 289.14 638.32
  L 289.83 633.70
  A 1.35 1.33 -14.8 0 1 290.34 632.84
  Q 291.97 631.65 294.04 632.04
  A 0.64 0.63 -81.2 0 0 294.79 631.49
  L 294.99 629.76
  Q 295.04 629.28 294.58 629.11
  C 286.91 626.32 285.60 632.78 285.00 638.52
  Q 284.95 639.02 284.45 638.99
  L 283.11 638.91
  Q 282.59 638.88 282.51 639.40
  L 282.08 642.27
  Q 282.01 642.77 282.52 642.73
  L 283.72 642.65
  Q 284.27 642.61 284.21 643.16
  Z
  M 197.99 638.35
  C 199.23 632.28 210.25 632.88 210.13 640.35
  Q 210.12 641.00 210.76 641.00
  L 214.21 641.00
  Q 214.76 641.00 214.77 640.45
  C 215.04 631.35 206.38 628.36 199.07 631.09
  C 192.55 633.52 191.26 641.67 196.26 646.33
  C 199.87 649.71 209.24 650.66 208.30 656.97
  C 207.14 664.66 192.09 664.12 194.63 654.55
  A 0.62 0.61 -82.4 0 0 194.04 653.77
  L 190.26 653.77
  A 0.54 0.54 0.0 0 0 189.72 654.30
  Q 189.53 667.65 203.28 666.20
  Q 211.13 665.37 212.70 658.26
  C 215.87 643.91 196.08 647.63 197.99 638.35
  Z
  M 558.18 646.15
  A 0.40 0.40 0.0 0 1 557.78 645.69
  L 559.24 635.21
  A 0.40 0.40 0.0 0 1 559.64 634.86
  L 574.61 634.87
  A 0.40 0.40 0.0 0 0 575.00 634.53
  L 575.54 631.23
  A 0.40 0.40 0.0 0 0 575.14 630.77
  L 555.77 630.77
  A 0.40 0.40 0.0 0 0 555.37 631.11
  L 550.54 665.28
  A 0.40 0.40 0.0 0 0 550.94 665.73
  L 554.61 665.75
  A 0.40 0.40 0.0 0 0 555.01 665.40
  L 557.09 650.60
  A 0.40 0.40 0.0 0 1 557.49 650.26
  L 570.65 650.26
  A 0.40 0.40 0.0 0 0 571.05 649.91
  L 571.51 646.59
  A 0.40 0.40 0.0 0 0 571.11 646.13
  L 558.18 646.15
  Z
  M 316.48 643.15
  Q 315.27 651.88 314.09 660.60
  C 313.46 665.17 316.59 667.78 320.83 665.51
  Q 321.18 665.33 321.24 664.93
  L 321.50 663.23
  Q 321.56 662.85 321.19 662.77
  L 318.69 662.22
  Q 318.03 662.07 318.13 661.41
  L 320.66 643.21
  Q 320.74 642.67 321.29 642.67
  L 323.84 642.70
  Q 324.39 642.71 324.45 642.16
  L 324.78 639.51
  Q 324.85 638.94 324.26 638.94
  L 321.87 638.97
  Q 321.25 638.98 321.34 638.37
  L 322.24 632.18
  Q 322.34 631.54 321.68 631.53
  L 319.47 631.51
  Q 318.92 631.51 318.79 632.04
  L 317.22 638.35
  Q 317.06 639.00 316.39 638.98
  L 315.45 638.93
  Q 314.80 638.91 314.71 639.55
  L 314.37 642.05
  A 0.59 0.59 0.0 0 0 315.00 642.72
  L 315.99 642.63
  Q 316.56 642.58 316.48 643.15
  Z
  M 682.58 643.22
  Q 680.84 654.55 680.03 661.50
  C 679.52 665.81 683.47 667.18 686.81 665.63
  A 0.87 0.86 81.4 0 0 687.31 664.95
  L 687.56 663.03
  A 0.46 0.46 0.0 0 0 687.00 662.52
  C 684.92 663.03 684.13 661.92 684.39 659.98
  Q 685.54 651.57 686.76 643.14
  Q 686.83 642.67 687.30 642.67
  L 689.86 642.70
  Q 690.43 642.70 690.50 642.14
  L 690.84 639.55
  Q 690.92 638.94 690.30 638.95
  L 687.91 638.98
  Q 687.32 638.98 687.40 638.40
  L 688.29 632.21
  Q 688.39 631.55 687.71 631.54
  L 685.49 631.51
  Q 684.97 631.50 684.84 632.01
  L 683.25 638.56
  A 0.56 0.55 -81.7 0 1 682.69 638.98
  L 681.23 638.91
  Q 680.86 638.90 680.81 639.27
  L 680.44 642.06
  Q 680.34 642.79 681.07 642.72
  L 682.03 642.63
  Q 682.68 642.57 682.58 643.22
  Z
  M 240.16 645.18
  C 238.21 650.07 236.28 660.76 241.07 664.68
  Q 244.30 667.32 248.66 666.17
  C 256.62 664.07 257.86 654.37 257.79 647.02
  C 257.68 635.35 243.82 635.98 240.16 645.18
  Z
  M 412.37 641.81
  Q 409.12 636.75 404.14 639.00
  C 397.06 642.19 395.92 653.69 396.98 660.24
  C 398.08 667.01 405.19 668.41 409.02 662.74
  Q 409.51 662.01 409.60 662.89
  C 410.05 667.48 417.11 667.64 416.24 662.92
  Q 416.15 662.38 415.62 662.51
  Q 413.34 663.07 413.62 661.01
  Q 415.12 650.24 416.63 639.46
  Q 416.70 638.97 416.20 638.97
  L 413.80 638.96
  Q 413.30 638.96 413.21 639.45
  L 412.78 641.72
  Q 412.68 642.29 412.37 641.81
  Z
  M 446.41 642.07
  L 446.50 639.49
  Q 446.52 638.95 445.98 638.95
  L 443.87 638.95
  Q 443.17 638.95 443.08 639.64
  L 439.50 665.07
  Q 439.41 665.74 440.07 665.74
  L 442.99 665.74
  Q 443.62 665.74 443.70 665.12
  Q 444.72 657.36 445.81 649.65
  Q 446.70 643.43 452.75 642.89
  Q 453.15 642.85 453.20 642.46
  L 453.63 639.25
  Q 453.70 638.74 453.21 638.60
  C 449.85 637.59 448.32 639.68 446.96 642.22
  A 0.29 0.29 0.0 0 1 446.41 642.07
  Z
  M 479.82 653.51
  L 493.47 653.51
  Q 493.90 653.51 493.97 653.09
  C 494.80 647.70 495.11 640.41 488.53 638.59
  Q 483.38 637.17 479.93 640.30
  C 475.06 644.74 472.49 659.03 477.25 664.15
  Q 480.21 667.33 485.29 666.18
  Q 492.01 664.66 493.03 657.08
  Q 493.07 656.73 492.72 656.72
  L 489.50 656.67
  Q 488.99 656.66 488.90 657.16
  C 488.04 661.91 482.60 665.27 479.55 659.94
  Q 478.53 658.16 479.38 653.87
  Q 479.45 653.51 479.82 653.51
  Z
  M 610.45 641.79
  C 607.73 636.17 600.85 638.18 598.27 642.55
  Q 593.47 650.70 595.55 660.78
  C 596.91 667.34 603.61 668.10 607.18 662.85
  Q 607.65 662.16 607.85 662.98
  Q 608.98 667.72 613.86 665.77
  Q 614.33 665.58 614.40 665.08
  L 614.68 663.09
  Q 614.74 662.70 614.34 662.65
  L 612.49 662.44
  A 0.74 0.73 -83.2 0 1 611.84 661.61
  L 614.92 639.47
  Q 615.00 638.95 614.47 638.95
  L 612.11 638.96
  Q 611.65 638.96 611.55 639.40
  L 611.01 641.72
  Q 610.82 642.55 610.45 641.79
  Z
  M 651.46 643.56
  Q 652.76 645.54 652.30 648.25
  A 0.50 0.50 0.0 0 0 652.79 648.83
  L 655.99 648.83
  Q 656.58 648.83 656.62 648.25
  Q 657.31 638.60 648.80 638.39
  C 640.75 638.19 638.59 648.62 638.53 654.80
  C 638.48 660.12 639.04 665.37 645.54 666.25
  C 651.50 667.06 655.12 661.80 655.84 656.39
  A 0.37 0.37 0.0 0 0 655.48 655.97
  L 652.23 655.95
  A 0.61 0.60 -86.4 0 0 651.62 656.49
  Q 651.23 660.03 649.15 661.65
  C 646.67 663.59 643.68 662.33 643.19 659.50
  Q 641.86 651.78 645.31 644.64
  C 646.46 642.25 649.62 640.74 651.46 643.56
  Z
  M 729.85 659.33
  C 732.20 652.99 734.66 638.06 723.48 638.32
  Q 716.75 638.48 714.18 644.99
  C 712.15 650.13 710.39 659.70 714.39 664.19
  Q 717.27 667.43 722.28 666.17
  Q 727.82 664.79 729.85 659.33
  Z
  M 761.82 642.26
  L 761.91 639.45
  A 0.48 0.48 0.0 0 0 761.44 638.96
  L 758.97 638.95
  Q 758.61 638.94 758.57 639.29
  L 754.93 665.17
  Q 754.85 665.73 755.42 665.73
  L 758.46 665.75
  Q 759.05 665.75 759.12 665.17
  Q 760.18 657.19 761.43 649.27
  Q 762.36 643.40 768.07 642.90
  Q 768.61 642.86 768.68 642.31
  L 769.05 639.23
  Q 769.12 638.70 768.61 638.56
  C 764.98 637.56 763.96 639.82 762.28 642.40
  Q 761.79 643.16 761.82 642.26
  Z
  M 360.67 644.38
  L 361.38 665.07
  Q 361.40 665.73 362.06 665.74
  L 365.40 665.75
  Q 366.06 665.75 366.30 665.13
  L 376.23 639.55
  Q 376.46 638.96 375.82 638.96
  L 373.12 638.95
  Q 372.41 638.95 372.18 639.61
  L 364.80 660.31
  Q 364.79 660.33 364.79 660.31
  Q 364.73 649.88 364.03 639.46
  Q 363.99 638.95 363.48 638.95
  L 359.50 638.96
  Q 358.95 638.96 358.79 639.49
  L 352.60 659.96
  Q 352.55 660.12 352.53 659.96
  L 350.59 639.50
  Q 350.54 638.97 350.01 638.96
  L 347.02 638.94
  Q 346.48 638.93 346.54 639.47
  L 349.36 665.08
  Q 349.43 665.73 350.09 665.74
  L 353.48 665.75
  Q 354.01 665.75 354.18 665.26
  Q 357.87 655.01 360.61 644.37
  A 0.03 0.03 0.0 0 1 360.67 644.38
  Z
  M 798.14 659.46
  L 795.32 639.48
  Q 795.25 638.96 794.73 638.96
  L 791.29 638.95
  Q 790.81 638.95 790.89 639.43
  Q 792.83 651.08 794.72 662.69
  Q 795.28 666.12 794.32 668.15
  Q 792.66 671.67 788.73 671.64
  A 1.59 1.59 0.0 0 0 788.43 674.79
  Q 794.11 675.84 797.44 670.09
  Q 801.54 663.01 810.79 639.43
  Q 810.97 638.97 810.48 638.97
  L 807.18 638.94
  Q 806.75 638.94 806.59 639.34
  L 798.81 659.54
  A 0.35 0.35 0.0 0 1 798.14 659.46
  Z"
/>
<path fill="#ffffff" d="
  M 643.48 20.73
  L 656.36 24.79
  L 643.48 20.73
  Z"
/>
<path fill="#ffffff" d="
  M 662.27 26.73
  L 673.59 30.74
  L 662.27 26.73
  Z"
/>
<path fill="#ffffff" d="
  M 686.24 35.49
  Q 774.18 70.68 843.15 135.62
  C 852.67 144.58 866.47 158.49 876.66 170.20
  Q 969.99 277.45 994.29 418.57
  Q 994.82 421.62 995.25 425.91
  C 995.83 431.57 997.27 436.51 996.96 441.45
  Q 980.58 307.86 901.54 201.72
  C 849.60 131.96 779.56 75.83 698.88 41.19
  Q 692.50 38.45 686.24 35.49
  Z"
/>
<path fill="#ffffff" d="
  M 453.82 486.33
  Q 414.97 486.27 376.13 486.30
  C 364.62 486.31 356.74 480.05 356.74 467.75
  Q 356.77 406.57 356.77 345.40
  C 356.76 336.71 359.01 329.79 367.16 326.46
  Q 370.76 324.99 379.05 324.99
  Q 481.94 325.02 584.83 324.99
  Q 600.04 324.98 603.55 326.08
  Q 615.29 329.74 615.16 345.51
  Q 615.02 361.69 615.13 377.90
  Q 615.13 378.51 614.52 378.51
  L 609.54 378.51
  Q 609.06 378.51 609.06 378.04
  L 609.08 342.75
  A 0.70 0.70 0.0 0 0 608.38 342.05
  L 363.67 342.05
  A 0.53 0.53 0.0 0 0 363.14 342.58
  L 363.14 465.68
  Q 363.14 466.22 363.68 466.22
  L 570.03 466.22
  Q 570.59 466.22 570.59 466.78
  L 570.58 485.74
  Q 570.58 486.31 570.01 486.31
  L 517.92 486.31
  Q 517.40 486.31 517.44 486.83
  L 519.02 505.09
  Q 519.07 505.74 518.41 505.74
  L 513.52 505.74
  Q 513.05 505.74 513.01 505.27
  L 511.41 486.72
  A 0.44 0.44 0.0 0 0 510.97 486.31
  L 461.52 486.31
  Q 460.84 486.31 460.79 486.98
  L 459.23 505.04
  Q 459.17 505.74 458.46 505.74
  L 453.70 505.74
  A 0.51 0.51 0.0 0 1 453.19 505.19
  L 454.43 486.99
  Q 454.47 486.33 453.82 486.33
  Z"
/>
<path fill="#ffffff" d="
  M 388.22 357.14
  A 8.36 8.36 0.0 0 1 379.86 365.50
  A 8.36 8.36 0.0 0 1 371.50 357.14
  A 8.36 8.36 0.0 0 1 379.86 348.78
  A 8.36 8.36 0.0 0 1 388.22 357.14
  Z
  M 385.22 357.13
  A 5.36 5.36 0.0 0 0 379.86 351.77
  A 5.36 5.36 0.0 0 0 374.50 357.13
  A 5.36 5.36 0.0 0 0 379.86 362.49
  A 5.36 5.36 0.0 0 0 385.22 357.13
  Z"
/>
<circle fill="#010c80" cx="379.86" cy="357.13" r="5.36"/>
<path fill="#ffffff" d="
  M 564.57 413.46
  A 0.26 0.26 0.0 0 1 564.31 413.72
  L 407.25 413.72
  A 0.26 0.26 0.0 0 1 406.99 413.46
  L 406.99 366.76
  A 0.26 0.26 0.0 0 1 407.25 366.50
  L 564.31 366.50
  A 0.26 0.26 0.0 0 1 564.57 366.76
  L 564.57 413.46
  Z
  M 561.54 369.85
  A 0.34 0.34 0.0 0 0 561.20 369.51
  L 410.34 369.51
  A 0.34 0.34 0.0 0 0 410.00 369.85
  L 410.00 410.37
  A 0.34 0.34 0.0 0 0 410.34 410.71
  L 561.20 410.71
  A 0.34 0.34 0.0 0 0 561.54 410.37
  L 561.54 369.85
  Z"
/>
<rect fill="#010c80" x="410.00" y="369.51" width="151.54" height="41.20" rx="0.34"/>
<path fill="#ffffff" d="
  M 644.3218 495.1186
  A 19.88 19.88 0.0 0 1 624.4765 515.0332
  L 593.9365 515.0865
  A 19.88 19.88 0.0 0 1 574.0219 495.2413
  L 573.8582 401.4814
  A 19.88 19.88 0.0 0 1 593.7035 381.5668
  L 624.2435 381.5135
  A 19.88 19.88 0.0 0 1 644.1581 401.3587
  L 644.3218 495.1186
  Z
  M 616.36 393.19
  A 1.92 1.92 0.0 0 0 614.44 391.27
  L 603.38 391.27
  A 1.92 1.92 0.0 0 0 601.46 393.19
  L 601.46 393.33
  A 1.92 1.92 0.0 0 0 603.38 395.25
  L 614.44 395.25
  A 1.92 1.92 0.0 0 0 616.36 393.33
  L 616.36 393.19
  Z
  M 640.23 403.02
  A 0.32 0.32 0.0 0 0 639.91 402.70
  L 577.95 402.70
  A 0.32 0.32 0.0 0 0 577.63 403.02
  L 577.63 490.00
  A 0.32 0.32 0.0 0 0 577.95 490.32
  L 639.91 490.32
  A 0.32 0.32 0.0 0 0 640.23 490.00
  L 640.23 403.02
  Z
  M 614.6734 500.6055
  A 3.97 3.97 0.0 0 0 610.6347 496.7053
  L 607.7352 496.7560
  A 3.97 3.97 0.0 0 0 603.8351 500.7946
  L 603.8466 501.4545
  A 3.97 3.97 0.0 0 0 607.8853 505.3547
  L 610.7848 505.3040
  A 3.97 3.97 0.0 0 0 614.6849 501.2654
  L 614.6734 500.6055
  Z"
/>
<rect fill="#010c80" x="601.46" y="391.27" width="14.90" height="3.98" rx="1.92"/>
<path fill="#010c80" d="
  M 640.23 490.00
  A 0.32 0.32 0.0 0 1 639.91 490.32
  L 577.95 490.32
  A 0.32 0.32 0.0 0 1 577.63 490.00
  L 577.63 403.02
  A 0.32 0.32 0.0 0 1 577.95 402.70
  L 639.91 402.70
  A 0.32 0.32 0.0 0 1 640.23 403.02
  L 640.23 490.00
  Z
  M 614.40 410.04
  A 5.99 5.99 0.0 0 0 608.41 404.05
  A 5.99 5.99 0.0 0 0 602.42 410.04
  A 5.99 5.99 0.0 0 0 608.41 416.03
  A 5.99 5.99 0.0 0 0 614.40 410.04
  Z
  M 637.51 418.31
  A 0.29 0.29 0.0 0 0 637.22 418.02
  L 580.28 418.02
  A 0.29 0.29 0.0 0 0 579.99 418.31
  L 579.99 440.19
  A 0.29 0.29 0.0 0 0 580.28 440.48
  L 637.22 440.48
  A 0.29 0.29 0.0 0 0 637.51 440.19
  L 637.51 418.31
  Z
  M 607.75 442.11
  A 0.34 0.34 0.0 0 0 607.41 441.77
  L 579.97 441.77
  A 0.34 0.34 0.0 0 0 579.63 442.11
  L 579.63 463.89
  A 0.34 0.34 0.0 0 0 579.97 464.23
  L 607.41 464.23
  A 0.34 0.34 0.0 0 0 607.75 463.89
  L 607.75 442.11
  Z
  M 637.51 442.11
  A 0.33 0.33 0.0 0 0 637.18 441.78
  L 609.76 441.78
  A 0.33 0.33 0.0 0 0 609.43 442.11
  L 609.43 463.91
  A 0.33 0.33 0.0 0 0 609.76 464.24
  L 637.18 464.24
  A 0.33 0.33 0.0 0 0 637.51 463.91
  L 637.51 442.11
  Z
  M 637.51 467.52
  A 0.28 0.28 0.0 0 0 637.23 467.24
  L 580.27 467.24
  A 0.28 0.28 0.0 0 0 579.99 467.52
  L 579.99 469.96
  A 0.28 0.28 0.0 0 0 580.27 470.24
  L 637.23 470.24
  A 0.28 0.28 0.0 0 0 637.51 469.96
  L 637.51 467.52
  Z
  M 637.51 473.28
  A 0.35 0.35 0.0 0 0 637.16 472.93
  L 580.32 472.93
  A 0.35 0.35 0.0 0 0 579.97 473.28
  L 579.97 475.60
  A 0.35 0.35 0.0 0 0 580.32 475.95
  L 637.16 475.95
  A 0.35 0.35 0.0 0 0 637.51 475.60
  L 637.51 473.28
  Z
  M 637.51 478.54
  A 0.28 0.28 0.0 0 0 637.23 478.26
  L 580.27 478.26
  A 0.28 0.28 0.0 0 0 579.99 478.54
  L 579.99 480.98
  A 0.28 0.28 0.0 0 0 580.27 481.26
  L 637.23 481.26
  A 0.28 0.28 0.0 0 0 637.51 480.98
  L 637.51 478.54
  Z
  M 613.75 483.97
  A 0.33 0.33 0.0 0 0 613.42 483.64
  L 580.32 483.64
  A 0.33 0.33 0.0 0 0 579.99 483.97
  L 579.99 486.33
  A 0.33 0.33 0.0 0 0 580.32 486.66
  L 613.42 486.66
  A 0.33 0.33 0.0 0 0 613.75 486.33
  L 613.75 483.97
  Z"
/>
<path fill="#ffffff" d="
  M 614.40 410.04
  A 5.99 5.99 0.0 0 1 608.41 416.03
  A 5.99 5.99 0.0 0 1 602.42 410.04
  A 5.99 5.99 0.0 0 1 608.41 404.05
  A 5.99 5.99 0.0 0 1 614.40 410.04
  Z
  M 611.38 409.99
  A 2.98 2.98 0.0 0 0 608.40 407.01
  A 2.98 2.98 0.0 0 0 605.42 409.99
  A 2.98 2.98 0.0 0 0 608.40 412.97
  A 2.98 2.98 0.0 0 0 611.38 409.99
  Z"
/>
<circle fill="#010c80" cx="608.40" cy="409.99" r="2.98"/>
<path fill="#ffffff" d="
  M 637.51 440.19
  A 0.29 0.29 0.0 0 1 637.22 440.48
  L 580.28 440.48
  A 0.29 0.29 0.0 0 1 579.99 440.19
  L 579.99 418.31
  A 0.29 0.29 0.0 0 1 580.28 418.02
  L 637.22 418.02
  A 0.29 0.29 0.0 0 1 637.51 418.31
  L 637.51 440.19
  Z
  M 634.51 421.02
  A 0.29 0.29 0.0 0 0 634.22 420.73
  L 582.96 420.73
  A 0.29 0.29 0.0 0 0 582.67 421.02
  L 582.67 437.18
  A 0.29 0.29 0.0 0 0 582.96 437.47
  L 634.22 437.47
  A 0.29 0.29 0.0 0 0 634.51 437.18
  L 634.51 421.02
  Z"
/>
<path fill="#ffffff" d="
  M 449.80 451.48
  A 0.33 0.33 0.0 0 1 449.47 451.81
  L 407.31 451.81
  A 0.33 0.33 0.0 0 1 406.98 451.48
  L 406.98 419.70
  A 0.33 0.33 0.0 0 1 407.31 419.37
  L 449.47 419.37
  A 0.33 0.33 0.0 0 1 449.80 419.70
  L 449.80 451.48
  Z
  M 446.50 422.78
  A 0.38 0.38 0.0 0 0 446.12 422.40
  L 410.38 422.40
  A 0.38 0.38 0.0 0 0 410.00 422.78
  L 410.00 448.42
  A 0.38 0.38 0.0 0 0 410.38 448.80
  L 446.12 448.80
  A 0.38 0.38 0.0 0 0 446.50 448.42
  L 446.50 422.78
  Z"
/>
<rect fill="#010c80" x="582.67" y="420.73" width="51.84" height="16.74" rx="0.29"/>
<rect fill="#ffffff" x="459.47" y="421.40" width="103.78" height="3.02" rx="0.49"/>
<rect fill="#010c80" x="410.00" y="422.40" width="36.50" height="26.40" rx="0.38"/>
<rect fill="#ffffff" x="459.51" y="429.45" width="103.74" height="3.00" rx="0.44"/>
<rect fill="#ffffff" x="459.51" y="437.76" width="103.74" height="3.00" rx="0.38"/>
<path fill="#ffffff" d="
  M 607.75 463.89
  A 0.34 0.34 0.0 0 1 607.41 464.23
  L 579.97 464.23
  A 0.34 0.34 0.0 0 1 579.63 463.89
  L 579.63 442.11
  A 0.34 0.34 0.0 0 1 579.97 441.77
  L 607.41 441.77
  A 0.34 0.34 0.0 0 1 607.75 442.11
  L 607.75 463.89
  Z
  M 605.04 445.10
  A 0.32 0.32 0.0 0 0 604.72 444.78
  L 583.32 444.78
  A 0.32 0.32 0.0 0 0 583.00 445.10
  L 583.00 461.20
  A 0.32 0.32 0.0 0 0 583.32 461.52
  L 604.72 461.52
  A 0.32 0.32 0.0 0 0 605.04 461.20
  L 605.04 445.10
  Z"
/>
<path fill="#ffffff" d="
  M 637.51 463.91
  A 0.33 0.33 0.0 0 1 637.18 464.24
  L 609.76 464.24
  A 0.33 0.33 0.0 0 1 609.43 463.91
  L 609.43 442.11
  A 0.33 0.33 0.0 0 1 609.76 441.78
  L 637.18 441.78
  A 0.33 0.33 0.0 0 1 637.51 442.11
  L 637.51 463.91
  Z
  M 634.50 445.05
  A 0.27 0.27 0.0 0 0 634.23 444.78
  L 612.73 444.78
  A 0.27 0.27 0.0 0 0 612.46 445.05
  L 612.46 461.25
  A 0.27 0.27 0.0 0 0 612.73 461.52
  L 634.23 461.52
  A 0.27 0.27 0.0 0 0 634.50 461.25
  L 634.50 445.05
  Z"
/>
<path fill="#ffffff" d="
  M 997.43 443.13
  Q 998.38 446.97 997.94 451.45
  L 997.43 443.13
  Z"
/>
<rect fill="#010c80" x="583.00" y="444.78" width="22.04" height="16.74" rx="0.32"/>
<rect fill="#010c80" x="612.46" y="444.78" width="22.04" height="16.74" rx="0.27"/>
<rect fill="#ffffff" x="459.50" y="446.17" width="60.24" height="3.02" rx="0.37"/>
<path fill="#ffffff" d="
  M 998.14 452.55
  Q 999.04 453.33 999.04 454.50
  Q 999.02 457.87 998.93 461.26
  L 998.14 452.55
  Z"
/>
<path fill="#ffffff" d="
  M 1.75 464.95
  L 1.16 475.84
  Q 0.80 470.41 1.12 466.12
  Q 1.18 465.45 1.75 464.95
  Z"
/>
<path fill="#ffffff" d="
  M 999.43 465.34
  Q 1000.52 471.84 999.82 478.75
  L 999.43 465.34
  Z"
/>
<rect fill="#ffffff" x="579.99" y="467.24" width="57.52" height="3.00" rx="0.28"/>
<rect fill="#ffffff" x="579.97" y="472.93" width="57.54" height="3.02" rx="0.35"/>
<rect fill="#ffffff" x="579.99" y="478.26" width="57.52" height="3.00" rx="0.28"/>
<rect fill="#ffffff" x="579.99" y="483.64" width="33.76" height="3.02" rx="0.33"/>
<path fill="#ffffff" d="
  M 1000.33 485.76
  L 1001.00 487.12
  L 1001.00 513.50
  L 1000.19 514.28
  L 1000.33 485.76
  Z"
/>
<path fill="#ffffff" d="
  M 0.89 485.99
  L 0.91 514.48
  Q 0.37 514.35 0.00 513.87
  L 0.00 486.22
  Q 0.17 486.32 0.89 485.99
  Z"
/>
<rect fill="#010c80" x="-5.42" y="-4.30" transform="translate(609.26,501.03) rotate(-1.0)" width="10.84" height="8.60" rx="3.97"/>
<rect fill="#ffffff" x="442.46" y="509.42" width="87.30" height="8.32" rx="0.33"/>
<path fill="#ffffff" d="
  M 999.90 519.54
  Q 1000.48 527.20 999.38 534.39
  L 999.90 519.54
  Z"
/>
<path fill="#ffffff" d="
  M 1.09 523.43
  L 2.67 547.55
  Q 0.92 535.46 1.09 523.43
  Z"
/>
<path fill="#ffffff" d="
  M 224.73 568.58
  L 215.71 568.57
  Q 215.09 568.57 215.08 567.96
  L 215.05 566.81
  Q 215.03 566.15 215.69 566.15
  L 227.72 566.15
  Q 228.20 566.15 228.21 566.63
  Q 228.33 573.71 228.20 580.71
  C 228.08 587.43 224.37 591.90 218.00 593.78
  C 207.58 596.85 195.17 595.16 191.63 583.18
  C 188.83 573.73 189.41 562.60 190.45 552.52
  C 191.25 544.74 195.06 538.31 202.94 536.26
  C 212.54 533.76 223.53 536.32 227.22 546.69
  Q 227.38 547.13 226.95 547.32
  L 225.71 547.87
  Q 225.13 548.12 224.91 547.52
  C 221.67 538.71 213.71 537.21 205.27 538.35
  C 196.05 539.60 193.09 547.24 192.50 555.49
  Q 191.69 566.72 192.91 577.89
  Q 194.52 592.65 209.46 592.74
  Q 218.99 592.80 223.95 586.48
  C 226.20 583.62 225.32 572.60 225.22 569.05
  Q 225.20 568.58 224.73 568.58
  Z"
/>
<path fill="#ffffff" d="
  M 470.73 547.58
  Q 468.62 539.63 460.77 538.23
  C 455.70 537.33 447.43 538.14 444.68 543.40
  C 442.63 547.33 442.34 553.26 446.02 556.50
  C 452.20 561.95 460.74 564.17 468.38 568.09
  Q 475.33 571.65 475.64 579.19
  C 476.23 593.64 464.67 596.07 453.27 594.64
  Q 441.85 593.20 438.86 582.22
  Q 438.71 581.67 439.23 581.42
  L 440.34 580.87
  Q 441.01 580.54 441.19 581.26
  C 443.76 591.60 452.10 593.20 461.62 592.29
  C 468.26 591.66 472.97 588.15 473.42 581.15
  C 473.84 574.46 469.49 570.56 463.70 568.29
  Q 458.42 566.21 449.65 562.18
  Q 438.33 556.98 441.42 544.78
  Q 443.04 538.40 449.49 536.60
  C 460.11 533.63 471.14 536.20 473.57 548.50
  Q 473.67 548.98 473.28 549.28
  Q 470.32 551.57 467.29 553.80
  C 465.83 554.89 464.65 554.89 462.96 554.64
  Q 462.28 554.54 462.83 554.13
  L 470.45 548.41
  Q 470.87 548.09 470.73 547.58
  Z"
/>
<path fill="#ffffff" d="
  M 998.90 539.02
  Q 999.47 543.64 998.37 547.38
  L 998.90 539.02
  Z"
/>
<path fill="#ffffff" d="
  M 780.10 589.45
  C 785.78 593.36 794.13 593.51 800.51 591.76
  C 804.97 590.54 809.04 586.83 808.68 581.94
  C 807.57 567.26 776.42 575.28 778.16 556.23
  C 779.39 542.87 799.33 543.16 807.25 549.18
  Q 807.77 549.58 807.39 550.11
  L 806.72 551.06
  Q 806.37 551.55 805.87 551.22
  C 799.73 547.19 786.07 545.36 781.78 552.72
  C 777.99 559.22 783.08 565.90 789.62 567.45
  C 799.27 569.73 811.89 572.59 811.25 583.49
  C 810.49 596.32 792.09 596.48 783.22 593.88
  Q 780.23 593.00 778.57 591.25
  A 1.19 1.19 0.0 0 1 780.10 589.45
  Z"
/>
<path fill="#ffffff" d="
  M 281.25 588.68
  C 275.71 580.58 276.47 564.76 279.15 555.97
  C 281.98 546.67 292.13 544.48 300.53 545.73
  C 311.45 547.34 314.22 554.51 315.37 564.20
  C 316.30 572.09 316.01 585.19 309.43 590.99
  C 302.59 597.02 286.68 596.60 281.25 588.68
  Z
  M 283.61 552.78
  C 279.67 557.94 279.24 567.69 279.70 573.82
  C 280.44 583.63 282.49 591.14 293.32 592.33
  C 302.07 593.29 310.04 590.95 312.06 581.51
  C 313.73 573.70 314.50 559.08 308.99 552.54
  C 303.66 546.21 288.65 546.21 283.61 552.78
  Z"
/>
<path fill="#ffffff" d="
  M 502.32 594.87
  C 490.71 593.21 488.03 586.47 486.75 576.11
  C 485.44 565.59 486.45 549.74 498.50 546.32
  C 504.75 544.55 514.03 545.06 519.01 549.75
  C 527.07 557.34 525.78 576.85 522.47 585.91
  C 519.69 593.50 509.76 595.94 502.32 594.87
  Z
  M 520.59 583.82
  Q 524.36 572.57 521.30 559.00
  C 519.10 549.28 511.82 547.53 503.00 548.08
  C 494.14 548.64 490.78 553.86 489.48 562.30
  C 487.80 573.28 487.96 591.36 502.64 592.48
  C 510.07 593.05 517.96 591.65 520.59 583.82
  Z"
/>
<path fill="#ffffff" d="
  M 683.66 553.92
  C 687.98 543.22 707.80 542.87 714.56 551.01
  C 720.41 558.07 719.79 572.00 718.23 580.73
  C 716.01 593.17 705.58 596.92 694.31 594.42
  C 683.71 592.08 682.05 584.36 680.96 575.09
  Q 679.65 563.86 683.66 553.92
  Z
  M 687.64 588.11
  C 692.86 594.11 706.55 594.06 712.06 588.51
  C 717.92 582.59 717.20 568.93 715.99 561.01
  C 714.87 553.72 711.52 549.35 703.95 548.22
  C 693.48 546.65 685.69 549.96 684.02 561.26
  C 682.84 569.32 682.17 581.83 687.64 588.11
  Z"
/>
<path fill="#ffffff" d="
  M 245.02 591.74
  L 269.32 591.74
  A 0.43 0.43 0.0 0 1 269.75 592.17
  L 269.73 593.79
  A 0.43 0.43 0.0 0 1 269.30 594.22
  L 242.53 594.22
  A 0.43 0.43 0.0 0 1 242.10 593.79
  L 242.12 546.69
  A 0.43 0.43 0.0 0 1 242.56 546.26
  L 244.16 546.27
  A 0.43 0.43 0.0 0 1 244.58 546.70
  L 244.59 591.31
  A 0.43 0.43 0.0 0 0 245.02 591.74
  Z"
/>
<path fill="#ffffff" d="
  M 352.71 569.39
  Q 359.14 571.84 360.58 577.92
  C 362.89 587.67 354.76 593.15 346.24 593.82
  Q 338.10 594.45 329.91 594.18
  Q 329.29 594.16 329.29 593.54
  L 329.29 547.03
  Q 329.29 546.61 329.71 546.56
  Q 341.24 545.18 350.29 548.07
  C 359.67 551.06 360.88 563.46 352.64 568.77
  Q 352.07 569.15 352.71 569.39
  Z
  M 347.19 568.94
  C 353.26 566.23 358.18 561.25 354.63 554.88
  C 350.98 548.32 338.64 548.41 332.18 548.84
  Q 331.77 548.87 331.77 549.29
  L 331.77 591.21
  Q 331.77 591.61 332.17 591.63
  C 339.93 592.01 355.78 592.65 358.17 583.52
  C 359.66 577.79 355.57 572.29 350.04 570.66
  Q 348.30 570.15 347.19 569.65
  Q 346.39 569.29 347.19 568.94
  Z"
/>
<path fill="#ffffff" d="
  M 404.24 548.74
  L 377.13 548.74
  A 0.62 0.61 -0.0 0 1 376.51 548.13
  L 376.50 546.76
  Q 376.49 546.26 376.99 546.26
  L 407.97 546.26
  Q 408.49 546.26 408.29 546.74
  Q 399.20 568.31 390.08 589.78
  Q 389.06 592.19 389.06 594.79
  Q 389.08 602.51 389.06 610.16
  A 0.59 0.59 0.0 0 1 388.47 610.75
  L 387.24 610.74
  Q 386.55 610.73 386.56 610.05
  Q 386.61 602.35 386.56 594.68
  Q 386.54 591.99 385.49 589.51
  Q 376.45 568.18 367.41 546.85
  Q 367.19 546.31 367.77 546.29
  L 369.24 546.23
  A 0.82 0.81 77.4 0 1 370.02 546.73
  L 387.54 587.96
  Q 387.84 588.67 388.14 587.96
  L 404.57 549.24
  Q 404.78 548.74 404.24 548.74
  Z"
/>
<path fill="#ffffff" d="
  M 541.51 591.74
  L 565.80 591.74
  A 0.44 0.44 0.0 0 1 566.24 592.18
  L 566.23 593.79
  A 0.44 0.44 0.0 0 1 565.79 594.23
  L 539.02 594.22
  A 0.44 0.44 0.0 0 1 538.58 593.78
  L 538.58 546.71
  A 0.44 0.44 0.0 0 1 539.01 546.27
  L 540.62 546.24
  A 0.44 0.44 0.0 0 1 541.07 546.68
  L 541.07 591.30
  A 0.44 0.44 0.0 0 0 541.51 591.74
  Z"
/>
<path fill="#ffffff" d="
  M 593.05 592.53
  C 601.82 591.69 606.20 584.89 606.45 576.46
  Q 606.98 558.49 606.75 546.84
  A 0.59 0.59 0.0 0 1 607.33 546.24
  L 608.44 546.21
  Q 609.13 546.20 609.15 546.90
  Q 609.56 566.84 609.02 576.50
  C 608.36 588.38 600.67 597.22 587.96 594.54
  C 578.13 592.47 575.35 582.64 575.09 573.88
  Q 574.69 560.34 574.99 546.79
  Q 575.00 546.21 575.58 546.22
  L 576.75 546.26
  Q 577.44 546.28 577.43 546.97
  Q 577.19 565.74 577.52 575.25
  C 577.84 584.35 582.66 593.52 593.05 592.53
  Z"
/>
<path fill="#ffffff" d="
  M 637.83 549.20
  L 637.60 593.81
  A 0.45 0.45 0.0 0 1 637.15 594.26
  L 635.91 594.26
  A 0.45 0.45 0.0 0 1 635.46 593.81
  L 635.24 549.20
  A 0.45 0.45 0.0 0 0 634.79 548.75
  L 618.39 548.73
  A 0.45 0.45 0.0 0 1 617.94 548.27
  L 617.95 546.73
  A 0.45 0.45 0.0 0 1 618.40 546.29
  L 654.72 546.25
  A 0.45 0.45 0.0 0 1 655.17 546.68
  L 655.22 548.26
  A 0.45 0.45 0.0 0 1 654.77 548.73
  L 638.28 548.75
  A 0.45 0.45 0.0 0 0 637.83 549.20
  Z"
/>
<rect fill="#ffffff" x="664.65" y="546.26" width="2.48" height="47.98" rx="0.56"/>
<path fill="#ffffff" d="
  M 735.42 551.73
  L 735.42 593.64
  Q 735.42 594.19 734.86 594.21
  L 733.60 594.24
  Q 732.94 594.26 732.94 593.60
  L 732.94 547.32
  A 1.43 1.43 0.0 0 1 735.59 546.56
  L 761.87 588.88
  Q 762.33 589.63 762.33 588.75
  L 762.33 546.98
  Q 762.33 546.30 763.02 546.28
  L 764.14 546.25
  Q 764.80 546.23 764.80 546.89
  L 764.80 592.98
  A 1.48 1.48 0.0 0 1 762.07 593.76
  L 735.93 551.59
  Q 735.42 550.77 735.42 551.73
  Z"
/>
<path fill="#ffffff" d="
  M 4.69 565.74
  Q 3.01 557.25 2.82 547.98
  L 4.69 565.74
  Z"
/>
<path fill="#010c80" d="
  M 283.61 552.78
  C 288.65 546.21 303.66 546.21 308.99 552.54
  C 314.50 559.08 313.73 573.70 312.06 581.51
  C 310.04 590.95 302.07 593.29 293.32 592.33
  C 282.49 591.14 280.44 583.63 279.70 573.82
  C 279.24 567.69 279.67 557.94 283.61 552.78
  Z"
/>
<path fill="#010c80" d="
  M 520.59 583.82
  C 517.96 591.65 510.07 593.05 502.64 592.48
  C 487.96 591.36 487.80 573.28 489.48 562.30
  C 490.78 553.86 494.14 548.64 503.00 548.08
  C 511.82 547.53 519.10 549.28 521.30 559.00
  Q 524.36 572.57 520.59 583.82
  Z"
/>
<path fill="#010c80" d="
  M 687.64 588.11
  C 682.17 581.83 682.84 569.32 684.02 561.26
  C 685.69 549.96 693.48 546.65 703.95 548.22
  C 711.52 549.35 714.87 553.72 715.99 561.01
  C 717.20 568.93 717.92 582.59 712.06 588.51
  C 706.55 594.06 692.86 594.11 687.64 588.11
  Z"
/>
<path fill="#010c80" d="
  M 347.19 569.65
  Q 348.30 570.15 350.04 570.66
  C 355.57 572.29 359.66 577.79 358.17 583.52
  C 355.78 592.65 339.93 592.01 332.17 591.63
  Q 331.77 591.61 331.77 591.21
  L 331.77 549.29
  Q 331.77 548.87 332.18 548.84
  C 338.64 548.41 350.98 548.32 354.63 554.88
  C 358.18 561.25 353.26 566.23 347.19 568.94
  Q 346.39 569.29 347.19 569.65
  Z"
/>
<path fill="#ffffff" d="
  M 997.96 549.81
  C 997.98 552.26 998.13 554.10 997.47 556.66
  C 996.77 559.38 997.09 562.24 996.64 564.75
  C 995.73 569.84 995.08 575.83 994.38 580.08
  C 978.85 675.31 936.69 762.82 872.08 834.79
  Q 865.20 842.46 860.46 846.73
  C 867.56 839.04 875.05 831.03 881.48 823.40
  Q 981.11 705.03 997.96 549.81
  Z"
/>
<path fill="#ffffff" d="
  M 4.69 565.74
  Q 5.39 567.55 5.59 569.62
  Q 5.90 572.81 5.90 572.85
  C 20.96 674.93 67.18 769.30 138.13 844.15
  Q 138.26 844.29 138.22 844.38
  Q 138.18 844.49 137.98 844.58
  Q 96.81 801.25 66.99 749.49
  Q 18.70 665.68 5.18 569.73
  Q 4.90 567.76 4.69 565.74
  Z"
/>
<path fill="#ffffff" d="
  M 283.72 642.65
  L 282.52 642.73
  Q 282.01 642.77 282.08 642.27
  L 282.51 639.40
  Q 282.59 638.88 283.11 638.91
  L 284.45 638.99
  Q 284.95 639.02 285.00 638.52
  C 285.60 632.78 286.91 626.32 294.58 629.11
  Q 295.04 629.28 294.99 629.76
  L 294.79 631.49
  A 0.64 0.63 -81.2 0 1 294.04 632.04
  Q 291.97 631.65 290.34 632.84
  A 1.35 1.33 -14.8 0 0 289.83 633.70
  L 289.14 638.32
  Q 289.04 638.97 289.70 638.97
  L 293.02 638.96
  Q 293.69 638.95 293.60 639.62
  L 293.28 642.12
  Q 293.20 642.69 292.63 642.69
  L 289.04 642.69
  Q 288.56 642.69 288.49 643.17
  Q 286.98 654.68 285.45 666.17
  C 284.67 671.99 283.18 676.50 276.21 674.56
  Q 275.58 674.38 275.67 673.74
  L 275.95 671.78
  A 0.53 0.52 -78.1 0 1 276.60 671.35
  C 278.96 672.01 280.50 671.21 280.89 668.69
  Q 282.88 655.94 284.21 643.16
  Q 284.27 642.61 283.72 642.65
  Z"
/>
<path fill="#ffffff" d="
  M 197.99 638.35
  C 196.08 647.63 215.87 643.91 212.70 658.26
  Q 211.13 665.37 203.28 666.20
  Q 189.53 667.65 189.72 654.30
  A 0.54 0.54 0.0 0 1 190.26 653.77
  L 194.04 653.77
  A 0.62 0.61 -82.4 0 1 194.63 654.55
  C 192.09 664.12 207.14 664.66 208.30 656.97
  C 209.24 650.66 199.87 649.71 196.26 646.33
  C 191.26 641.67 192.55 633.52 199.07 631.09
  C 206.38 628.36 215.04 631.35 214.77 640.45
  Q 214.76 641.00 214.21 641.00
  L 210.76 641.00
  Q 210.12 641.00 210.13 640.35
  C 210.25 632.88 199.23 632.28 197.99 638.35
  Z"
/>
<path fill="#ffffff" d="
  M 558.18 646.15
  L 571.11 646.13
  A 0.40 0.40 0.0 0 1 571.51 646.59
  L 571.05 649.91
  A 0.40 0.40 0.0 0 1 570.65 650.26
  L 557.49 650.26
  A 0.40 0.40 0.0 0 0 557.09 650.60
  L 555.01 665.40
  A 0.40 0.40 0.0 0 1 554.61 665.75
  L 550.94 665.73
  A 0.40 0.40 0.0 0 1 550.54 665.28
  L 555.37 631.11
  A 0.40 0.40 0.0 0 1 555.77 630.77
  L 575.14 630.77
  A 0.40 0.40 0.0 0 1 575.54 631.23
  L 575.00 634.53
  A 0.40 0.40 0.0 0 1 574.61 634.87
  L 559.64 634.86
  A 0.40 0.40 0.0 0 0 559.24 635.21
  L 557.78 645.69
  A 0.40 0.40 0.0 0 0 558.18 646.15
  Z"
/>
<path fill="#ffffff" d="
  M 315.99 642.63
  L 315.00 642.72
  A 0.59 0.59 0.0 0 1 314.37 642.05
  L 314.71 639.55
  Q 314.80 638.91 315.45 638.93
  L 316.39 638.98
  Q 317.06 639.00 317.22 638.35
  L 318.79 632.04
  Q 318.92 631.51 319.47 631.51
  L 321.68 631.53
  Q 322.34 631.54 322.24 632.18
  L 321.34 638.37
  Q 321.25 638.98 321.87 638.97
  L 324.26 638.94
  Q 324.85 638.94 324.78 639.51
  L 324.45 642.16
  Q 324.39 642.71 323.84 642.70
  L 321.29 642.67
  Q 320.74 642.67 320.66 643.21
  L 318.13 661.41
  Q 318.03 662.07 318.69 662.22
  L 321.19 662.77
  Q 321.56 662.85 321.50 663.23
  L 321.24 664.93
  Q 321.18 665.33 320.83 665.51
  C 316.59 667.78 313.46 665.17 314.09 660.60
  Q 315.27 651.88 316.48 643.15
  Q 316.56 642.58 315.99 642.63
  Z"
/>
<path fill="#ffffff" d="
  M 682.03 642.63
  L 681.07 642.72
  Q 680.34 642.79 680.44 642.06
  L 680.81 639.27
  Q 680.86 638.90 681.23 638.91
  L 682.69 638.98
  A 0.56 0.55 -81.7 0 0 683.25 638.56
  L 684.84 632.01
  Q 684.97 631.50 685.49 631.51
  L 687.71 631.54
  Q 688.39 631.55 688.29 632.21
  L 687.40 638.40
  Q 687.32 638.98 687.91 638.98
  L 690.30 638.95
  Q 690.92 638.94 690.84 639.55
  L 690.50 642.14
  Q 690.43 642.70 689.86 642.70
  L 687.30 642.67
  Q 686.83 642.67 686.76 643.14
  Q 685.54 651.57 684.39 659.98
  C 684.13 661.92 684.92 663.03 687.00 662.52
  A 0.46 0.46 0.0 0 1 687.56 663.03
  L 687.31 664.95
  A 0.87 0.86 81.4 0 1 686.81 665.63
  C 683.47 667.18 679.52 665.81 680.03 661.50
  Q 680.84 654.55 682.58 643.22
  Q 682.68 642.57 682.03 642.63
  Z"
/>
<path fill="#ffffff" d="
  M 240.16 645.18
  C 243.82 635.98 257.68 635.35 257.79 647.02
  C 257.86 654.37 256.62 664.07 248.66 666.17
  Q 244.30 667.32 241.07 664.68
  C 236.28 660.76 238.21 650.07 240.16 645.18
  Z
  M 248.66 642.08
  C 242.32 643.29 241.67 656.68 243.31 661.09
  A 1.33 1.29 3.5 0 0 243.95 661.79
  Q 248.78 664.15 251.09 659.75
  C 252.65 656.78 256.87 640.52 248.66 642.08
  Z"
/>
<path fill="#ffffff" d="
  M 412.78 641.72
  L 413.21 639.45
  Q 413.30 638.96 413.80 638.96
  L 416.20 638.97
  Q 416.70 638.97 416.63 639.46
  Q 415.12 650.24 413.62 661.01
  Q 413.34 663.07 415.62 662.51
  Q 416.15 662.38 416.24 662.92
  C 417.11 667.64 410.05 667.48 409.60 662.89
  Q 409.51 662.01 409.02 662.74
  C 405.19 668.41 398.08 667.01 396.98 660.24
  C 395.92 653.69 397.06 642.19 404.14 639.00
  Q 409.12 636.75 412.37 641.81
  Q 412.68 642.29 412.78 641.72
  Z
  M 403.9306 662.7610
  A 10.67 4.79 100.8 0 0 410.6352 653.1776
  A 10.67 4.79 100.8 0 0 407.9294 641.7990
  A 10.67 4.79 100.8 0 0 401.2248 651.3824
  A 10.67 4.79 100.8 0 0 403.9306 662.7610
  Z"
/>
<path fill="#ffffff" d="
  M 446.96 642.22
  C 448.32 639.68 449.85 637.59 453.21 638.60
  Q 453.70 638.74 453.63 639.25
  L 453.20 642.46
  Q 453.15 642.85 452.75 642.89
  Q 446.70 643.43 445.81 649.65
  Q 444.72 657.36 443.70 665.12
  Q 443.62 665.74 442.99 665.74
  L 440.07 665.74
  Q 439.41 665.74 439.50 665.07
  L 443.08 639.64
  Q 443.17 638.95 443.87 638.95
  L 445.98 638.95
  Q 446.52 638.95 446.50 639.49
  L 446.41 642.07
  A 0.29 0.29 0.0 0 0 446.96 642.22
  Z"
/>
<path fill="#ffffff" d="
  M 479.38 653.87
  Q 478.53 658.16 479.55 659.94
  C 482.60 665.27 488.04 661.91 488.90 657.16
  Q 488.99 656.66 489.50 656.67
  L 492.72 656.72
  Q 493.07 656.73 493.03 657.08
  Q 492.01 664.66 485.29 666.18
  Q 480.21 667.33 477.25 664.15
  C 472.49 659.03 475.06 644.74 479.93 640.30
  Q 483.38 637.17 488.53 638.59
  C 495.11 640.41 494.80 647.70 493.97 653.09
  Q 493.90 653.51 493.47 653.51
  L 479.82 653.51
  Q 479.45 653.51 479.38 653.87
  Z
  M 487.97 642.40
  C 482.99 641.03 481.01 644.94 479.95 649.13
  Q 479.79 649.77 480.45 649.77
  L 489.32 649.78
  Q 489.86 649.78 489.94 649.24
  Q 490.42 645.85 488.70 642.96
  A 1.21 1.21 0.0 0 0 487.97 642.40
  Z"
/>
<path fill="#ffffff" d="
  M 611.01 641.72
  L 611.55 639.40
  Q 611.65 638.96 612.11 638.96
  L 614.47 638.95
  Q 615.00 638.95 614.92 639.47
  L 611.84 661.61
  A 0.74 0.73 -83.2 0 0 612.49 662.44
  L 614.34 662.65
  Q 614.74 662.70 614.68 663.09
  L 614.40 665.08
  Q 614.33 665.58 613.86 665.77
  Q 608.98 667.72 607.85 662.98
  Q 607.65 662.16 607.18 662.85
  C 603.61 668.10 596.91 667.34 595.55 660.78
  Q 593.47 650.70 598.27 642.55
  C 600.85 638.18 607.73 636.17 610.45 641.79
  Q 610.82 642.55 611.01 641.72
  Z
  M 602.2489 662.7645
  A 10.67 4.79 100.7 0 0 608.9367 653.1693
  A 10.67 4.79 100.7 0 0 606.2111 641.7955
  A 10.67 4.79 100.7 0 0 599.5233 651.3907
  A 10.67 4.79 100.7 0 0 602.2489 662.7645
  Z"
/>
<path fill="#ffffff" d="
  M 651.46 643.56
  C 649.62 640.74 646.46 642.25 645.31 644.64
  Q 641.86 651.78 643.19 659.50
  C 643.68 662.33 646.67 663.59 649.15 661.65
  Q 651.23 660.03 651.62 656.49
  A 0.61 0.60 -86.4 0 1 652.23 655.95
  L 655.48 655.97
  A 0.37 0.37 0.0 0 1 655.84 656.39
  C 655.12 661.80 651.50 667.06 645.54 666.25
  C 639.04 665.37 638.48 660.12 638.53 654.80
  C 638.59 648.62 640.75 638.19 648.80 638.39
  Q 657.31 638.60 656.62 648.25
  Q 656.58 648.83 655.99 648.83
  L 652.79 648.83
  A 0.50 0.50 0.0 0 1 652.30 648.25
  Q 652.76 645.54 651.46 643.56
  Z"
/>
<path fill="#ffffff" d="
  M 729.85 659.33
  Q 727.82 664.79 722.28 666.17
  Q 717.27 667.43 714.39 664.19
  C 710.39 659.70 712.15 650.13 714.18 644.99
  Q 716.75 638.48 723.48 638.32
  C 734.66 638.06 732.20 652.99 729.85 659.33
  Z
  M 723.19 661.69
  C 727.56 658.57 727.88 648.92 727.01 644.39
  A 1.70 1.62 -74.4 0 0 726.54 643.51
  Q 724.35 641.41 721.86 642.26
  C 716.77 644.00 715.88 655.05 716.59 659.24
  C 717.15 662.51 720.63 663.52 723.19 661.69
  Z"
/>
<path fill="#ffffff" d="
  M 762.28 642.40
  C 763.96 639.82 764.98 637.56 768.61 638.56
  Q 769.12 638.70 769.05 639.23
  L 768.68 642.31
  Q 768.61 642.86 768.07 642.90
  Q 762.36 643.40 761.43 649.27
  Q 760.18 657.19 759.12 665.17
  Q 759.05 665.75 758.46 665.75
  L 755.42 665.73
  Q 754.85 665.73 754.93 665.17
  L 758.57 639.29
  Q 758.61 638.94 758.97 638.95
  L 761.44 638.96
  A 0.48 0.48 0.0 0 1 761.91 639.45
  L 761.82 642.26
  Q 761.79 643.16 762.28 642.40
  Z"
/>
<path fill="#ffffff" d="
  M 360.61 644.37
  Q 357.87 655.01 354.18 665.26
  Q 354.01 665.75 353.48 665.75
  L 350.09 665.74
  Q 349.43 665.73 349.36 665.08
  L 346.54 639.47
  Q 346.48 638.93 347.02 638.94
  L 350.01 638.96
  Q 350.54 638.97 350.59 639.50
  L 352.53 659.96
  Q 352.55 660.12 352.60 659.96
  L 358.79 639.49
  Q 358.95 638.96 359.50 638.96
  L 363.48 638.95
  Q 363.99 638.95 364.03 639.46
  Q 364.73 649.88 364.79 660.31
  Q 364.79 660.33 364.80 660.31
  L 372.18 639.61
  Q 372.41 638.95 373.12 638.95
  L 375.82 638.96
  Q 376.46 638.96 376.23 639.55
  L 366.30 665.13
  Q 366.06 665.75 365.40 665.75
  L 362.06 665.74
  Q 361.40 665.73 361.38 665.07
  L 360.67 644.38
  A 0.03 0.03 0.0 0 0 360.61 644.37
  Z"
/>
<path fill="#ffffff" d="
  M 798.81 659.54
  L 806.59 639.34
  Q 806.75 638.94 807.18 638.94
  L 810.48 638.97
  Q 810.97 638.97 810.79 639.43
  Q 801.54 663.01 797.44 670.09
  Q 794.11 675.84 788.43 674.79
  A 1.59 1.59 0.0 0 1 788.73 671.64
  Q 792.66 671.67 794.32 668.15
  Q 795.28 666.12 794.72 662.69
  Q 792.83 651.08 790.89 639.43
  Q 790.81 638.95 791.29 638.95
  L 794.73 638.96
  Q 795.25 638.96 795.32 639.48
  L 798.14 659.46
  A 0.35 0.35 0.0 0 0 798.81 659.54
  Z"
/>
<path fill="#010c80" d="
  M 243.31 661.09
  C 241.67 656.68 242.32 643.29 248.66 642.08
  C 256.87 640.52 252.65 656.78 251.09 659.75
  Q 248.78 664.15 243.95 661.79
  A 1.33 1.29 3.5 0 1 243.31 661.09
  Z"
/>
<ellipse fill="#010c80" cx="0.00" cy="0.00" transform="translate(405.93,652.28) rotate(100.8)" rx="10.67" ry="4.79"/>
<path fill="#010c80" d="
  M 479.95 649.13
  C 481.01 644.94 482.99 641.03 487.97 642.40
  A 1.21 1.21 0.0 0 1 488.70 642.96
  Q 490.42 645.85 489.94 649.24
  Q 489.86 649.78 489.32 649.78
  L 480.45 649.77
  Q 479.79 649.77 479.95 649.13
  Z"
/>
<ellipse fill="#010c80" cx="0.00" cy="0.00" transform="translate(604.23,652.28) rotate(100.7)" rx="10.67" ry="4.79"/>
<path fill="#010c80" d="
  M 727.01 644.39
  C 727.88 648.92 727.56 658.57 723.19 661.69
  C 720.63 663.52 717.15 662.51 716.59 659.24
  C 715.88 655.05 716.77 644.00 721.86 642.26
  Q 724.35 641.41 726.54 643.51
  A 1.70 1.62 -74.4 0 1 727.01 644.39
  Z"
/>
<path fill="#ffffff" d="
  M 471.95 998.97
  Q 465.81 999.10 462.52 998.84
  C 347.56 989.92 240.09 942.30 156.43 863.03
  Q 156.54 862.83 156.73 862.84
  Q 156.85 862.84 157.00 862.98
  C 242.95 944.41 353.72 991.87 471.95 998.97
  Z"
/>
<path fill="#ffffff" d="
  M 824.35 881.14
  C 743.28 949.98 643.07 991.11 536.99 998.98
  Q 535.36 999.10 529.79 998.92
  Q 552.00 997.61 568.00 995.35
  C 657.75 982.65 741.05 947.39 811.69 890.95
  Q 817.95 885.95 824.35 881.14
  Z"
/>
<path fill="#ffffff" d="
  M 527.22 999.12
  Q 526.95 999.66 526.16 1000.00
  L 474.22 1000.00
  L 473.96 999.05
  Q 500.56 1000.14 527.22 999.12
  Z"
/>
</svg>
